<svg xmlns="http://www.w3.org/2000/svg" viewBox="0 0 309.98 151.3"><title>a4c</title><g id="Layer_2" data-name="Layer 2"><g id="Layer_1-2" data-name="Layer 1"><path d="M29.06,125.56h-9l-1.19-9.32H9.49l-1.1,9.32H0L8.47,66.17h12ZM10.5,108.19h7.38l-3.73-30Z"/><path d="M48,126.06h-.09a11.93,11.93,0,0,1-8-3.3v12.11H31.27V79.05h8.47v3.13a11.65,11.65,0,0,1,8.13-3.64H48c5.17,0,8,3.22,8,8.64v30.16C55.92,122.76,53.13,126.06,48,126.06ZM44.32,86.33a7.67,7.67,0,0,0-4.49,1.53v28.88a7.67,7.67,0,0,0,4.49,1.53c2,0,3-.85,3-2.88V89.21C47.37,87.18,46.35,86.33,44.32,86.33Z"/><path d="M75.37,126.06h-.08a12,12,0,0,1-8.05-3.3v12.11H58.68V79.05h8.48v3.13a11.61,11.61,0,0,1,8.13-3.64h.08c5.17,0,8,3.22,8,8.64v30.16C83.34,122.76,80.54,126.06,75.37,126.06ZM71.73,86.33a7.72,7.72,0,0,0-4.49,1.53v28.88a7.72,7.72,0,0,0,4.49,1.53c2,0,3-.85,3-2.88V89.21C74.78,87.18,73.76,86.33,71.73,86.33Z"/><path d="M101.16,89c0-2-1-3.05-3-3.05h-1c-2,0-3,1-3,3.05v3.65a3.6,3.6,0,0,0,2,3.55l8,5.09c3.64,2.28,5.25,4.32,5.25,8.81v5.59c0,6.86-3.47,10.33-10.34,10.33h-3c-6.86,0-10.25-3.47-10.25-10.25V108.7h8.3v6.86c0,2,.94,3,3,3h1.1a2.7,2.7,0,0,0,3-3v-4a3.82,3.82,0,0,0-2-3.56l-8.13-5c-3.56-2.29-5.17-4.4-5.17-8.81V88.87C86,82,89.47,78.54,96.33,78.54h2.88c6.87,0,10.25,3.47,10.25,10.25v6.69h-8.3Z"/><path d="M217.51,101.24v13.81c0,7.37-3.64,11-11,11H202c-7.37,0-11-3.64-11-11V76.76c0-7.37,3.64-11,11-11h4.41c7.37,0,10.93,3.55,10.93,10.92V88.79h-8.9V77.18c0-2.37-1.1-3.47-3.39-3.47h-1.52c-2.37,0-3.48,1.1-3.48,3.47v37.45c0,2.37,1.11,3.47,3.48,3.47h1.69c2.29,0,3.39-1.1,3.39-3.47V101.24Z"/><path d="M220.41,65.41H229v60.15h-8.56Z"/><path d="M256.23,125.56h-8.47v-3a11.58,11.58,0,0,1-8.13,3.55h-.34c-5,0-7.54-2.79-7.54-8v-39h8.55v36.51c0,1.86.94,2.71,2.88,2.71a8.49,8.49,0,0,0,4.49-1.44V79.05h8.56Z"/><path d="M259.11,65.41h8.56V82.18a11.43,11.43,0,0,1,8-3.64h.09c5.17,0,8,3.22,8,8.64v30.16c0,5.42-2.79,8.72-8,8.72h-.09a12.19,12.19,0,0,1-8.13-3.3v2.8h-8.47Zm8.56,51.33a7.67,7.67,0,0,0,4.49,1.53c2,0,3-.85,3-2.88V89.21c0-2-1-2.88-3-2.88a7.67,7.67,0,0,0-4.49,1.53Z"/><path d="M301.59,89c0-2-1-3.05-3-3.05h-1c-1.95,0-3,1-3,3.05v3.65a3.6,3.6,0,0,0,2,3.55l8.05,5.09c3.65,2.28,5.26,4.32,5.26,8.81v5.59c0,6.86-3.48,10.33-10.34,10.33h-3.05c-6.86,0-10.25-3.47-10.25-10.25V108.7h8.3v6.86c0,2,.93,3,3,3h1.1a2.7,2.7,0,0,0,3.05-3v-4a3.81,3.81,0,0,0-2-3.56l-8.13-5c-3.56-2.29-5.17-4.4-5.17-8.81V88.87c0-6.86,3.48-10.33,10.34-10.33h2.88c6.86,0,10.25,3.47,10.25,10.25v6.69h-8.3Z"/><path d="M229.48,13.14,227.24,0l-9.09,9.76c-1,1.1-5.73,5.13-10.16,5.14-2.2,0-4.26-1.15-6.29-3.45-14.8-16.74-36.57-9.52-37.49-9.21l-4.45,1.53v110.3l-7.6-.43h-11l-7.67.44-.44-.44.44-7.52V47.8c0-1.54-1.93-2.27-5.79-2.17H126c-3.95-.1-5.88.63-5.78,2.17v76.55c0,1.64.86,2.41,2.6,2.32h29.38l7.6-.43v7.56a5.41,5.41,0,0,0,.07.91v14.53q0,2.31,5.64,2h1.88c4,.19,5.88-.49,5.79-2v-14.9L173,131v-4.54l.19-.19,7.52.44h2.18c1.54,0,2.26-1.84,2.16-5.5v-1.88q.15-5.79-2.16-5.65h-2.18l-7.52.44-.19-.2v-4.45l.19-3.31V69.51a1.38,1.38,0,0,0-.19-.67v-55c5-.59,13-.26,18.87,6.39,5.7,6.44,11.85,7.85,16,7.9a23,23,0,0,0,8.28-1.52,16.35,16.35,0,0,1-3.28,7.15c-2.52,2.93-6.36,4.35-11.75,4.35h-.6c-8.19.27-11.8-1.36-12.68-2.15a6.6,6.6,0,0,0-12.18,5c.83,2.59,5,11,25.15,10.37,9.52.09,17-3,22.12-9C232.26,31.26,229.79,15,229.48,13.14Z"/></g></g></svg>