<svg xmlns="http://www.w3.org/2000/svg" viewBox="0 0 411.99 141.53"><title>bi</title><g id="Layer_2" data-name="Layer 2"><g id="Layer_1-2" data-name="Layer 1"><path d="M229.23,82V48.17a1,1,0,0,1,1-1h11.59a10.24,10.24,0,0,1,10.62,10.26,9.18,9.18,0,0,1-2.61,6.67.58.58,0,0,0-.12.8l.12.12a8.67,8.67,0,0,1,3,6.87c0,6.83-4.21,11.19-11,11.19H230.26a1,1,0,0,1-1-1Zm16-24.32a3.48,3.48,0,0,0-3.39-3.38h-4.92a.49.49,0,0,0-.52.46v5.85a.5.5,0,0,0,.46.51h5A3.54,3.54,0,0,0,245.24,57.71Zm.2,14.16a3.77,3.77,0,0,0-3.59-3.94h-4.92a.49.49,0,0,0-.52.45v7a.48.48,0,0,0,.46.51h5a3.75,3.75,0,0,0,3.59-4Z"/><path d="M256.55,82V48.17a1,1,0,0,1,1-1h5.13a1,1,0,0,1,1,1V82a1,1,0,0,1-1,1h-5.13A1,1,0,0,1,256.55,82Z"/><path d="M268.79,82V48.17a1,1,0,0,1,1-1h5.08a1,1,0,0,1,1,1V60.74c0,.21.1.31.25.31s.21-.1.36-.31l8.62-13.08c.15-.26.36-.51,1.13-.51h5.59a1.06,1.06,0,0,1,1.08,1v.08a1.15,1.15,0,0,1-.21.72L282.49,63.66a1.56,1.56,0,0,0-.31.83,1.48,1.48,0,0,0,.31.86L292.9,81a1.54,1.54,0,0,1,.31,1,1.14,1.14,0,0,1-1.16,1.14h-5.66a1.41,1.41,0,0,1-1.34-.82l-8.41-13.75c-.15-.25-.31-.46-.46-.46s-.25.11-.25.31V82a1,1,0,0,1-1,1h-5.08a1,1,0,0,1-1-1Z"/><path d="M296.13,82V48.17a1,1,0,0,1,1-1h18.62a1,1,0,0,1,1,1V53.3a1,1,0,0,1-1,1H303.82a.48.48,0,0,0-.51.46V61a.48.48,0,0,0,.45.51h11.6a1,1,0,0,1,1,1v5.13a1,1,0,0,1-1,1H303.82a.48.48,0,0,0-.51.46v6.21a.47.47,0,0,0,.45.51H316a1,1,0,0,1,1,1V82a1,1,0,0,1-1,1H297.15A1,1,0,0,1,296.13,82Z"/><path d="M229.23,124.44V90.58a1,1,0,0,1,1-1h5.13a1,1,0,0,1,1,1v33.86a1,1,0,0,1-1,1h-5.13A1,1,0,0,1,229.23,124.44Z"/><path d="M241.47,124.44V90.58a1,1,0,0,1,1-1h6.08a1.27,1.27,0,0,1,1.31.93l7,21c.1.31.46.2.46-.1V90.58a1,1,0,0,1,1-1h5.15a1,1,0,0,1,1,1v33.86a1,1,0,0,1-1,1h-6.09a1.32,1.32,0,0,1-1.39-.86l-6.95-19.55c-.11-.31-.47-.2-.47.1v19.29a1,1,0,0,1-1,1H242.5a1,1,0,0,1-1-1Z"/><path d="M267.93,114.81v-1a1,1,0,0,1,1-1h5.45a1,1,0,0,1,1,1v1c0,2.51,2,4.21,5,4.21s5.08-1.49,5.08-3.7c0-2.41-.93-3.59-7.54-5.33s-9.17-5.51-9.17-10.9c0-5.65,4.62-10.1,11.9-10.1s11.54,4.52,11.54,10.83v.25a1,1,0,0,1-1,1H286a1,1,0,0,1-1-1v-.25c0-2.26-1.79-3.85-4.31-3.85-2.87,0-4.46,1.23-4.46,3.38,0,1.85,1.28,3.08,7.23,4.62,6.88,1.79,9.49,5.33,9.49,10.82,0,6.77-5,11.24-12.51,11.24-7.39,0-12.47-4.57-12.47-11.22Z"/><path d="M296.29,124.44V90.58a1,1,0,0,1,1-1h5.14a1,1,0,0,1,1,1v33.86a1,1,0,0,1-1,1h-5.14A1,1,0,0,1,296.29,124.44Z"/><path d="M309,119.21c-1.39-3-1.44-6.83-1.44-11.7s.05-8.72,1.44-11.7c1.84-4,5.74-6.82,11.39-6.82,6.66,0,11.95,4.21,11.95,11.23a1,1,0,0,1-1,1h-5.22a1.11,1.11,0,0,1-1.12-1c0-2.36-1.8-4-4.57-4-2.46,0-4,.87-4.78,2.46s-.72,5.55-.72,8.83,0,7.34.72,8.82,2.3,2.46,4.78,2.46c2.92,0,4.82-1.33,4.82-4.66v-1a.48.48,0,0,0-.46-.51h-3.44a1,1,0,0,1-1-1v-4.87a1,1,0,0,1,1-1h10a1,1,0,0,1,1,1v7.39c0,8.16-5.18,12-11.95,12-5.66,0-9.56-2.82-11.4-6.82Z"/><path d="M336.52,124.44V90.58a1,1,0,0,1,1-1h5.15a1,1,0,0,1,1,1V103.4a.49.49,0,0,0,.45.52h7.76a.49.49,0,0,0,.51-.45V90.58a1,1,0,0,1,1-1h5.12a1,1,0,0,1,1,1v33.86a1,1,0,0,1-1,1h-5.15a1,1,0,0,1-1-1V111.61a.49.49,0,0,0-.45-.51h-7.76a.5.5,0,0,0-.52.46v12.88c0,.56-.71,1-1.28,1h-4.87a1,1,0,0,1-1-1Z"/><path d="M370.47,124.44V97.25a.47.47,0,0,0-.45-.51h-6.47a1,1,0,0,1-1-1V90.58a1,1,0,0,1,1-1h21a1,1,0,0,1,1,1v5.13a1,1,0,0,1-1,1h-6.41a.47.47,0,0,0-.51.45.06.06,0,0,0,0,.06v27.19a1,1,0,0,1-1,1h-5.14A1,1,0,0,1,370.47,124.44Z"/><path d="M387,114.81v-1a1,1,0,0,1,1-1h5.44a1,1,0,0,1,1,1v1c0,2.51,2,4.21,5,4.21s5.08-1.49,5.08-3.7c0-2.41-.92-3.59-7.54-5.33-6.46-1.69-9.18-5.49-9.18-10.87,0-5.66,4.62-10.11,11.9-10.11s11.54,4.52,11.54,10.83v.25a1,1,0,0,1-1,1h-5.19a1,1,0,0,1-1-1v-.25c0-2.26-1.8-3.85-4.31-3.85-2.87,0-4.47,1.23-4.47,3.38,0,1.85,1.31,3.08,7.24,4.62,6.87,1.8,9.49,5.34,9.49,10.82,0,6.78-5,11.24-12.52,11.24S387,121.46,387,114.81Z"/><path d="M220.18,34.81a6.67,6.67,0,0,0-2.9-1.35h0l-.16,0a6.64,6.64,0,0,0-1.18-.1H172.56L187.35,15l.09-.17.05-.07A9.18,9.18,0,0,0,180.19,0a7.63,7.63,0,0,0-.84,0H71.55a5.84,5.84,0,0,0-.83,0,9.19,9.19,0,0,0-2.28.29h-.09L68,.4l-.15,0-.33.12-.16.06-.47.2-.16.08-.32.16-.15.09-.31.18-.15.1-.34.23-.08.06c-.15.11-.3.22-.44.34l-.06.06-.36.32-.06.06a10.14,10.14,0,0,0-.71.76l-.07.08L2,79.62A9.19,9.19,0,0,0,7.4,94.41l40.17,7.93L39.74,112a6.72,6.72,0,0,0,1,9.44,6.8,6.8,0,0,0,2.9,1.36l94.64,18.66h.25l.14,0h.44l.48,0a6.63,6.63,0,0,0,1.83-.26l.34-.11.33-.12.32-.15.07,0,.23-.12.09-.05.25-.14.05,0,.27-.19.1-.06.18-.14.09-.07.23-.19,0,0,.25-.25,0,0a2.39,2.39,0,0,0,.22-.23l0,0,.24-.28,0-.05,76.33-94.8a6.72,6.72,0,0,0-1-9.37Zm-212,56a5.5,5.5,0,0,1-4.35-6.46A5.56,5.56,0,0,1,4.9,81.93L66.42,5.73a5.79,5.79,0,0,1,.48-.51l0,0,.22-.2,0,0,.26-.2,0,0,.22-.15.09-.06a1,1,0,0,1,.17-.1l.11-.06.19-.1.09,0,.28-.13.1,0L69,4l.09,0,.24-.07h.06a5.25,5.25,0,0,1,1.37-.17c.21,0,.43,0,.64,0H179.54c.21,0,.43,0,.64,0a5.5,5.5,0,0,1,4.4,8.83l0,.05-.07.09L167.84,33.32,157,46.74l-28.66,35.6-4.29-12.27,18.78-23.33,10.81-13.42,14.95-18.57H78.5l12,34.43,4.53,13,.67,1.93,10,28.76,8.42-10.47.75,2.14,3.54,10.13-10.31,12.81,0,0c-.06.09-.13.16-.19.24l0,0-.18.19,0,0-.22.2-.19.16-.07.06-.16.12-.07,0-.23.15h0l-.22.12-.07,0-.19.1-.06,0c-.18.09-.36.16-.54.23l-.29.09a5.5,5.5,0,0,1-1.51.21,3.1,3.1,0,0,1-.44,0h0a3.56,3.56,0,0,1-.44-.06h-.16L65.1,102.05l5.22-6.47,2.61-3.23,22.52,4.44L87.57,74.21,82.35,59.29,68.78,20.37,19.23,81.76,58,89.41l-7.83,9.7ZM122.67,66,116,46.74h22.18Zm28.14-35L149,33.32H106.51a6.67,6.67,0,0,0-5.4,2.73l-7.88,9.76-9.57-27.4H161ZM104.15,53.65l8.6,24.63-1.44,1.78L107,85.37,99.19,62.88l-.76-2.17ZM58.74,85.79,25.91,79.32,67.48,27.83l11.4,32.66.75,2.18-19,23.52Zm31.11,6.14L75.52,89.1l9.32-11.53ZM57.19,111.81l5.28-6.52,1.9.37L102,113.07l.17,0h.11l.7.09h.07l.72,0a9.22,9.22,0,0,0,2.45-.33h.06l.06,0,.4-.13h0a8.93,8.93,0,0,0,.9-.37l.09,0,.33-.17.1,0,.33-.2.08,0,.36-.25.12-.08.25-.19.12-.09.3-.25.06-.05c.12-.1.24-.22.35-.33l.07-.06.29-.31c.12-.13.22-.26.32-.39l0,0,8.87-11,9.53,27.3ZM142,121.28,129.78,86.43l1.44-1.78,28.66-35.6,1.85-2.31h40.21Z"/></g></g></svg>