<svg xmlns="http://www.w3.org/2000/svg" viewBox="0 0 241.54 217.6"><title>ff</title><g id="Layer_2" data-name="Layer 2"><g id="Layer_1-2" data-name="Layer 1"><path d="M127.17,185.39a8.32,8.32,0,0,1-3.43-.75,6.83,6.83,0,0,0-5.81,0,8.3,8.3,0,0,1-6.88,0,6.85,6.85,0,0,0-5.82,0,8.31,8.31,0,0,1-6.88,0,6.77,6.77,0,0,0-5.8,0,8.63,8.63,0,0,1-3.46.75,8.49,8.49,0,0,1-3.43-.75,6.84,6.84,0,0,0-5.8,0,8.6,8.6,0,0,1-3.46.75.76.76,0,0,1,0-1.52,7,7,0,0,0,2.83-.62,8.44,8.44,0,0,1,7.07,0,6.9,6.9,0,0,0,5.61,0,8.4,8.4,0,0,1,7.07,0,6.73,6.73,0,0,0,5.62,0,8.42,8.42,0,0,1,7.08,0,6.78,6.78,0,0,0,5.61,0,8.42,8.42,0,0,1,7.08,0,6.89,6.89,0,0,0,2.8.61.76.76,0,1,1,0,1.52Z"/><path d="M127.17,189.45a8.47,8.47,0,0,1-3.43-.74,6.83,6.83,0,0,0-5.81,0,8.26,8.26,0,0,1-6.88,0,6.85,6.85,0,0,0-5.82,0,8.37,8.37,0,0,1-3.44.75,8.59,8.59,0,0,1-3.44-.74,6.81,6.81,0,0,0-5.8,0,8.4,8.4,0,0,1-6.89,0,6.81,6.81,0,0,0-5.8,0,8.6,8.6,0,0,1-3.46.75.76.76,0,0,1,0-1.52,7,7,0,0,0,2.83-.62,8.44,8.44,0,0,1,7.07,0,6.86,6.86,0,0,0,5.61,0,8.4,8.4,0,0,1,7.07,0,6.78,6.78,0,0,0,5.62,0,8.42,8.42,0,0,1,7.08,0,6.82,6.82,0,0,0,5.61,0,8.42,8.42,0,0,1,7.08,0,6.89,6.89,0,0,0,2.8.61.76.76,0,1,1,0,1.52Z"/><path d="M127.17,193.52a8.32,8.32,0,0,1-3.43-.75,6.83,6.83,0,0,0-5.81,0,8.3,8.3,0,0,1-6.88,0,6.85,6.85,0,0,0-5.82,0,8.53,8.53,0,0,1-3.44.75,8.44,8.44,0,0,1-3.44-.75,6.81,6.81,0,0,0-5.8,0,8.63,8.63,0,0,1-3.46.75,8.49,8.49,0,0,1-3.43-.75,6.84,6.84,0,0,0-5.8,0,8.6,8.6,0,0,1-3.46.75.76.76,0,0,1-.76-.76.77.77,0,0,1,.76-.77,7,7,0,0,0,2.83-.61,8.44,8.44,0,0,1,7.07,0,6.9,6.9,0,0,0,5.61,0,8.4,8.4,0,0,1,7.07,0,6.83,6.83,0,0,0,5.62,0,8.42,8.42,0,0,1,7.08,0,6.78,6.78,0,0,0,5.61,0,8.42,8.42,0,0,1,7.08,0,6.88,6.88,0,0,0,2.8.6.77.77,0,0,1,.76.77A.76.76,0,0,1,127.17,193.52Z"/><path d="M119.81,165.26a4.59,4.59,0,0,1,0,9.18,4.39,4.39,0,0,1-3.26-1.33,4.65,4.65,0,0,1-1.25-3.26,4.55,4.55,0,0,1,4.51-4.59m0-1.52a6.07,6.07,0,0,0-6,6.11,5.93,5.93,0,0,0,6,6.11,6.11,6.11,0,0,0,0-12.22Z"/><path d="M118,154.25a1.93,1.93,0,0,1,1.92,1.95,2,2,0,0,1-1.72,2l-11.71,2.16a1.52,1.52,0,0,0-1.1.85,1.5,1.5,0,0,0,0,1.38l9,16.5a6.2,6.2,0,0,1-2.45-.55,9.25,9.25,0,0,0-3.85-.87,9.12,9.12,0,0,0-3.86.87,6.05,6.05,0,0,1-2.49.55,6.17,6.17,0,0,1-2.5-.55,9,9,0,0,0-7.7,0,6.06,6.06,0,0,1-2.5.55l-.61,0,14.62-8.13a1.53,1.53,0,0,0,.6-2.06L99,160.27l-.07-.18,0-.12a1.8,1.8,0,0,1,0-1.57,1.7,1.7,0,0,1,.88-.84l18-3.31H118m0-1.52h-.4l-18.09,3.33a3.3,3.3,0,0,0-2,4.48c0,.13.1.25.16.38l4.72,8.62L84.64,179.4a8,8,0,0,1,1.33.47,7.44,7.44,0,0,0,6.26,0,7.44,7.44,0,0,1,6.43,0,7.5,7.5,0,0,0,3.13.69,7.42,7.42,0,0,0,3.12-.69,7.49,7.49,0,0,1,6.45,0,7.42,7.42,0,0,0,3.12.69,7.83,7.83,0,0,0,2.33-.37l-10.08-18.38,11.72-2.16a3.52,3.52,0,0,0,3-3.45,3.46,3.46,0,0,0-3.45-3.47Z"/><path d="M95.54,29.42C93.8,31.44,90,34,82.42,34c-6.27,0-13.21-1.25-20.64-2.51l-4.72-.87C54,34.53,49.82,42,44.81,55.94c3,0,5.11,0,5.69-.1a1.43,1.43,0,1,1,1,2.7c-.29.1-.67.29-3.76.29h-4c-4,10.9-7.72,18.52-11.58,23.25S24.17,89,19.25,89a15.91,15.91,0,0,1-9.36-3,12.35,12.35,0,0,1-5.3-7.91,1.52,1.52,0,0,1,1.15-1.73,1.49,1.49,0,0,1,1.74,1.16,9.23,9.23,0,0,0,4,6.17,13.34,13.34,0,0,0,7.72,2.41c4.05,0,7.42-1.93,10.61-5.88,3.57-4.34,7.13-11.39,10.8-21.51-3.67-.1-6.94-.29-7-.29a1.56,1.56,0,0,1-1.35-1.55,1.48,1.48,0,0,1,1.54-1.35l7.91.29a151.14,151.14,0,0,1,9-20.73c1.06-1.93,2.12-3.57,3.09-5a95.39,95.39,0,0,0-14.57-1.35,31.35,31.35,0,0,0-17.65,5A22.67,22.67,0,0,0,12,47.93c-1.06,5-.48,9.26,1.93,12.74,2,3,5.4,5.4,9.84,7.13a1.4,1.4,0,0,1,.87,1.84,1.56,1.56,0,0,1-1.35,1c-.19,0-.39-.1-.58-.1-5-1.92-8.78-4.72-11.19-8.19C8.73,58.16,8,53.14,9.12,47.26a25,25,0,0,1,10.8-15.82,33.93,33.93,0,0,1,19.29-5.59A100.2,100.2,0,0,1,55.9,27.49,13.33,13.33,0,0,1,60.05,24a1.58,1.58,0,0,1,1.93.68,1.4,1.4,0,0,1-.68,1.93,6.92,6.92,0,0,0-1.93,1.45,28.55,28.55,0,0,1,2.89.48c7.24,1.35,14.09,2.51,20.16,2.51,6.56,0,9.55-1.93,10.9-3.48a4.77,4.77,0,0,0,1.26-3.47,1.42,1.42,0,0,1,1.15-1.64,1.58,1.58,0,0,1,1.74,1.16A8.14,8.14,0,0,1,95.54,29.42Z"/><path d="M64.29,76.68q-2.18-3.18.58-10.13c.87-2.32,1.54-4.24,1.93-5.59.38-1.55.19-1.84.19-1.84s-.29-.29-1.83-.29c-1.74,0-3.76.1-5.4.1h-1c-1.35,3.67-3.57,9.07-3.66,9.36a1.49,1.49,0,0,1-1.93.77,1.38,1.38,0,0,1-.77-1.83c0-.1,2-4.83,3.37-8.4a3.35,3.35,0,0,1-2.22-1.35,3.15,3.15,0,0,1-.38-3.08c.77-2.41,2.31-4,3.95-4a2.4,2.4,0,0,1,2,1.16A5.56,5.56,0,0,1,59.76,56c1.64,0,3.56-.1,5.4-.1,1.44,0,3.28.19,4.24,1.54,1.25,1.93.19,4.83-1.83,10.13C67,68.86,65.45,73.3,66.7,75c.1.29.48.58,1.35.58,3.09,0,6-4.05,7.43-8.2a1.61,1.61,0,0,1,1.83-.87,1.5,1.5,0,0,1,.87,1.93,18.2,18.2,0,0,1-4.44,7.33,8.06,8.06,0,0,1-5.69,2.7A4.38,4.38,0,0,1,64.29,76.68ZM55.9,55.26a.67.67,0,0,0,0,.49c0,.09.29.29.87.29A5.35,5.35,0,0,0,57,53.43,5.55,5.55,0,0,0,55.9,55.26Z"/><path d="M78.47,76.39a8,8,0,0,1-3.09-6.46A15.37,15.37,0,0,1,79.14,60c2.22-2.7,5.21-4.34,7.81-4.34,2.41,0,4,.68,5,2.12s1.16,3.38.38,5.6a11.49,11.49,0,0,1-5.49,5.88,21.17,21.17,0,0,1-8.3,2.22c.58,2.31,2.7,4.15,6.56,4.15,4.92,0,9.65-3.48,11.67-8.49a1.39,1.39,0,0,1,1.83-.87,1.42,1.42,0,0,1,.87,1.83,17.14,17.14,0,0,1-5.88,7.62,14.85,14.85,0,0,1-8.49,2.8A10.74,10.74,0,0,1,78.47,76.39Zm2.89-14.57a13,13,0,0,0-3,6.76,15.47,15.47,0,0,0,7-1.93,8.2,8.2,0,0,0,4.24-4.25,3.89,3.89,0,0,0,0-3,3.66,3.66,0,0,0-2.7-.87C85.22,58.54,83,59.8,81.36,61.82Z"/><path d="M98,75.81a1.42,1.42,0,0,1,.1-2,1.5,1.5,0,0,1,2,0,5,5,0,0,0,3.76,1.74A6.06,6.06,0,0,0,108.36,74a6.32,6.32,0,0,0,1.84-4.63c.19-2.8-1.55-5.69-5.21-8.49l-1.83-1.45c-1.16,3-2.51,6.75-3.38,8.88a1.35,1.35,0,0,1-1.83.77,1.39,1.39,0,0,1-.87-1.83c1-2.32,2.6-6.76,3.76-9.94a6.91,6.91,0,0,1-2.12-4.82c0-3.28,1.83-5.69,4.15-5.69a3,3,0,0,1,2.5,1.15c1,1.35.68,3.77-.67,7.53a3.59,3.59,0,0,0-.39,1.06l2.51,2.12c4.34,3.38,6.46,7,6.27,10.8a9.32,9.32,0,0,1-2.7,6.56,8.81,8.81,0,0,1-6.46,2.41A8.08,8.08,0,0,1,98,75.81Zm3.57-23.34a2.55,2.55,0,0,0,.48,1.64c1.16-3.19,1-4.25.87-4.44h-.09C102.38,49.67,101.61,50.73,101.61,52.47Z"/><path d="M145.4,68.58c-1.54,4.14-5.5,10.12-9.93,10.12a3.55,3.55,0,0,1-1-.09,4.78,4.78,0,0,1-3.09-2.13c-1.25-2.21-1-5.69.68-10.7,1.74-5.21,1.06-6.66.87-7a1,1,0,0,0-.87-.38s-1.54.09-6,4.92A129.24,129.24,0,0,0,114.82,78l-.09.09a1.45,1.45,0,0,1-1.35,1H113a1.44,1.44,0,0,1-1-1.83c0-.1.77-2.61,1.64-5.12,11.67-30.47,14.27-35.78,15.14-37a1.42,1.42,0,0,1,2-.29,1.4,1.4,0,0,1,.28,2c-.77,1-3.56,7.33-12.92,31.45,2-2.61,4-4.92,5.79-6.85,4.82-5.21,6.94-5.89,8.1-5.89a3.71,3.71,0,0,1,3.18,1.55c1.26,1.83,1.16,4.82-.38,9.55-1.35,3.95-1.74,7-1,8.39a2,2,0,0,0,1.16.77c.67.1,2,0,3.95-2.22a19,19,0,0,0,3.57-6.08,1.55,1.55,0,0,1,1.93-.77A1.48,1.48,0,0,1,145.4,68.58Z"/><path d="M125.9,91.6c-1.74,2-5.5,4.54-13.12,4.54-6.27,0-13.21-1.26-20.64-2.51l-4.72-.87c-3.09,3.95-7.24,11.38-12.25,25.37,3,0,5.11,0,5.69-.1a1.43,1.43,0,1,1,1,2.7c-.29.1-.67.29-3.76.29h-4c-4,10.9-7.72,18.52-11.58,23.24s-8,7-12.92,7a15.91,15.91,0,0,1-9.36-3,12.37,12.37,0,0,1-5.3-7.91,1.53,1.53,0,0,1,1.15-1.74,1.51,1.51,0,0,1,1.74,1.16,9.19,9.19,0,0,0,4,6.17,13.28,13.28,0,0,0,7.72,2.42c4,0,7.42-1.93,10.61-5.89,3.57-4.34,7.13-11.38,10.8-21.51-3.67-.09-6.94-.29-7-.29a1.55,1.55,0,0,1-1.35-1.54,1.48,1.48,0,0,1,1.54-1.35l7.91.29a150.79,150.79,0,0,1,9-20.74c1.06-1.93,2.12-3.57,3.09-5a95.39,95.39,0,0,0-14.57-1.35,31.37,31.37,0,0,0-17.65,5,22.7,22.7,0,0,0-9.55,14.18c-1.06,5-.48,9.26,1.93,12.73,2,3,5.4,5.4,9.84,7.14a1.39,1.39,0,0,1,.87,1.83,1.56,1.56,0,0,1-1.35,1c-.19,0-.39-.1-.58-.1-5-1.93-8.78-4.73-11.19-8.2-2.8-4.15-3.57-9.16-2.41-15a25,25,0,0,1,10.8-15.82A33.86,33.86,0,0,1,69.57,88a101.27,101.27,0,0,1,16.69,1.64,13.29,13.29,0,0,1,4.15-3.47,1.57,1.57,0,0,1,1.93.68,1.39,1.39,0,0,1-.68,1.92,7.12,7.12,0,0,0-1.93,1.45c1,.1,1.93.29,2.9.48,7.23,1.35,14.08,2.51,20.15,2.51,6.56,0,9.55-1.93,10.9-3.47a4.77,4.77,0,0,0,1.26-3.47,1.42,1.42,0,0,1,1.15-1.64,1.57,1.57,0,0,1,1.74,1.16A8.12,8.12,0,0,1,125.9,91.6Z"/><path d="M94.65,138.86q-2.18-3.18.58-10.12c.87-2.32,1.54-4.25,1.93-5.6.38-1.54.19-1.83.19-1.83s-.29-.29-1.83-.29c-1.74,0-3.76.1-5.4.1h-1c-1.35,3.66-3.57,9.06-3.66,9.35a1.49,1.49,0,0,1-1.93.77,1.38,1.38,0,0,1-.77-1.83c0-.1,2-4.82,3.37-8.39a3.39,3.39,0,0,1-2.22-1.35,3.17,3.17,0,0,1-.38-3.09c.77-2.41,2.31-4,4-4a2.38,2.38,0,0,1,2,1.16,5.55,5.55,0,0,1,.58,4.43c1.64,0,3.56-.09,5.4-.09,1.44,0,3.28.19,4.24,1.54,1.25,1.93.19,4.82-1.83,10.13-.58,1.25-2.12,5.69-.87,7.42.1.29.48.58,1.35.58,3.09,0,6-4.05,7.43-8.2a1.61,1.61,0,0,1,1.83-.86,1.49,1.49,0,0,1,.87,1.92A18.25,18.25,0,0,1,104.1,138a8.06,8.06,0,0,1-5.69,2.7A4.36,4.36,0,0,1,94.65,138.86Zm-8.39-21.41a.64.64,0,0,0,0,.48c0,.1.29.29.87.29a5.18,5.18,0,0,0,.19-2.6A5.55,5.55,0,0,0,86.26,117.45Z"/><path d="M108.83,138.57a8,8,0,0,1-3.09-6.46,15.33,15.33,0,0,1,3.76-9.93c2.22-2.7,5.21-4.34,7.81-4.34,2.42,0,4,.67,5,2.12s1.16,3.37.39,5.59a11.54,11.54,0,0,1-5.5,5.89,21.34,21.34,0,0,1-8.3,2.22c.58,2.31,2.7,4.14,6.56,4.14,4.92,0,9.65-3.47,11.67-8.49a1.39,1.39,0,0,1,1.83-.86,1.42,1.42,0,0,1,.87,1.83A17.14,17.14,0,0,1,124,137.9a14.93,14.93,0,0,1-8.49,2.8A10.75,10.75,0,0,1,108.83,138.57ZM111.72,124a13,13,0,0,0-3,6.75,15.32,15.32,0,0,0,7-1.93,8.19,8.19,0,0,0,4.24-4.24,3.89,3.89,0,0,0,0-3,3.62,3.62,0,0,0-2.7-.87C115.58,120.73,113.36,122,111.72,124Z"/><path d="M130,138.57a8,8,0,0,1-3.08-6.46,15.33,15.33,0,0,1,3.76-9.93c2.22-2.7,5.21-4.34,7.81-4.34,2.41,0,4.05.67,5,2.12s1.15,3.37.38,5.59a11.45,11.45,0,0,1-5.5,5.89,21.29,21.29,0,0,1-8.29,2.22c.58,2.31,2.7,4.14,6.56,4.14,4.92,0,9.64-3.47,11.67-8.49a1.39,1.39,0,0,1,1.83-.86,1.43,1.43,0,0,1,.87,1.83,17.14,17.14,0,0,1-5.88,7.62,14.93,14.93,0,0,1-8.49,2.8A10.78,10.78,0,0,1,130,138.57Zm2.9-14.56a13,13,0,0,0-3,6.75,15.35,15.35,0,0,0,7-1.93,8.22,8.22,0,0,0,4.24-4.24,3.89,3.89,0,0,0,0-3,3.64,3.64,0,0,0-2.7-.87C136.79,120.73,134.58,122,132.94,124Z"/><path d="M149.62,138a1.41,1.41,0,0,1,.1-2,1.48,1.48,0,0,1,2,0,5,5,0,0,0,3.76,1.74,6.08,6.08,0,0,0,4.44-1.55,6.31,6.31,0,0,0,1.83-4.63c.2-2.79-1.54-5.69-5.2-8.48l-1.84-1.45c-1.15,3-2.5,6.75-3.37,8.87a1.35,1.35,0,0,1-1.83.77,1.39,1.39,0,0,1-.87-1.83c1-2.31,2.6-6.75,3.76-9.93a6.92,6.92,0,0,1-2.12-4.83c0-3.28,1.83-5.69,4.14-5.69a3,3,0,0,1,2.51,1.16c1,1.35.68,3.76-.67,7.52a3.42,3.42,0,0,0-.39,1.06l2.51,2.13c4.34,3.37,6.46,7,6.27,10.8a9.34,9.34,0,0,1-2.7,6.56,8.81,8.81,0,0,1-6.47,2.41A8.05,8.05,0,0,1,149.62,138Zm3.57-23.35a2.55,2.55,0,0,0,.48,1.64c1.16-3.18,1-4.24.87-4.43h-.1C154,111.86,153.19,112.92,153.19,114.65Z"/><path d="M182.12,130.57a20.64,20.64,0,0,1-3.76,6.46c-2,2.41-4.24,3.67-6.56,3.67a1.81,1.81,0,0,1-.67-.1,4.38,4.38,0,0,1-3.47-2.12c-1.74-2.7-1.45-7.53.77-13.31.77-2.12,1.54-4,2.22-5.69h-2.8A1.43,1.43,0,0,1,166.4,118a1.49,1.49,0,0,1,1.45-1.45h3.86c1.93-4.72,3.08-7.23,3.08-7.33a1.45,1.45,0,0,1,1.93-.67,1.35,1.35,0,0,1,.68,1.93l-2.51,6.07h2.6a1.48,1.48,0,0,1,1.45,1.45,1.42,1.42,0,0,1-1.45,1.45h-3.76l-2.6,6.75c-1.45,3.66-2.41,8.49-1.06,10.7a1.64,1.64,0,0,0,1.35.78c1.64.19,3.18-.68,4.82-2.51a19.1,19.1,0,0,0,3.18-5.69,1.46,1.46,0,0,1,1.84-.77A1.39,1.39,0,0,1,182.12,130.57Z"/><path d="M207.39,130.47c-2.5,6.85-7.71,11.48-14,12.44a2.78,2.78,0,0,1-1,.2c-.38,1-.77,1.93-1.06,2.89a48,48,0,0,1-5,9.84c-2,3-4.25,4.44-6.56,4.44A4.43,4.43,0,0,1,176,158c-1.25-2.12-1-5.4.68-8.39a17.72,17.72,0,0,1,6.84-6.46,26.11,26.11,0,0,1,6.85-2.51c.58-1.64,1.26-3.28,1.83-4.82-2.31,2.79-4.91,4.72-7.61,4.82h-.2a5,5,0,0,1-4.34-2.22c-1.83-2.51-1.54-6.94.68-12.34,2.89-7.14,3.95-8.59,4.14-8.88,1.26-1.93,3.67-.09,2.32,1.74-.1.09-1,1.35-3.76,8.2-1.84,4.34-2.22,8-1.06,9.64a2.35,2.35,0,0,0,2.12,1c1.45-.1,3.76-1.16,7.14-5.89a91.28,91.28,0,0,0,6.65-11.48l.19-.28a14.25,14.25,0,0,1,1.84-3.09,1.48,1.48,0,0,1,2,.1,1.6,1.6,0,0,1,0,2c-.19.1-1.25,1.54-3.66,8l-4.92,12.82c4.82-1,9-4.82,11-10.41a1.5,1.5,0,0,1,1.93-.87A1.42,1.42,0,0,1,207.39,130.47ZM189.07,144a25,25,0,0,0-4.25,1.73,14.5,14.5,0,0,0-5.69,5.31c-1.35,2.5-1.25,4.53-.67,5.49a1.45,1.45,0,0,0,1.35.87c3.28,0,6.65-6.75,8.87-12.44A2.88,2.88,0,0,1,189.07,144Z"/><path d="M208,140.41a4.6,4.6,0,0,1-3.09-2.41c-1.25-2.42-.86-6.27,1.07-11.29l1.44-3.76c3.76-9.74,7.62-19.87,10.61-25.66a1.45,1.45,0,0,1,2.61,1.26c-2.9,5.69-6.76,15.72-10.52,25.46l-1.44,3.76c-2.13,5.5-1.64,7.91-1.16,8.87a1.81,1.81,0,0,0,1.25,1c1,.29,2.7.19,4.83-1.83a16.43,16.43,0,0,0,4.05-6.18,1.49,1.49,0,0,1,1.92-.86,1.53,1.53,0,0,1,.78,1.92c-1.93,5.12-6.27,9.94-10.81,9.94A4.57,4.57,0,0,1,208,140.41Z"/><path d="M220.41,138.57a8,8,0,0,1-3.08-6.46,15.33,15.33,0,0,1,3.76-9.93c2.22-2.7,5.21-4.34,7.81-4.34,2.41,0,4,.67,5,2.12s1.15,3.37.38,5.59a11.54,11.54,0,0,1-5.5,5.89,21.29,21.29,0,0,1-8.29,2.22c.58,2.31,2.7,4.14,6.56,4.14,4.92,0,9.64-3.47,11.67-8.49a1.39,1.39,0,0,1,1.83-.86,1.43,1.43,0,0,1,.87,1.83,17.14,17.14,0,0,1-5.88,7.62,14.93,14.93,0,0,1-8.49,2.8A10.78,10.78,0,0,1,220.41,138.57Zm2.9-14.56a13,13,0,0,0-3,6.75,15.35,15.35,0,0,0,7-1.93,8.22,8.22,0,0,0,4.24-4.24,3.89,3.89,0,0,0,0-3,3.64,3.64,0,0,0-2.7-.87C227.16,120.73,225,122,223.31,124Z"/><path d="M8.79,107.5c.85,0,1.12.41,1.14,1.13l.07,4.9c0,.75-.43,1-.84,1s-.87-.29-.89-1.14l-.06-4.06-2.28-.08L6,112.45c0,.75-.44,1-.85,1s-.87-.28-.88-1.13l0-3.11L1,109.06c-.53,0-1-.24-1-1s.37-.87,1-.87Z"/><path d="M4.9,116.25a5.12,5.12,0,0,1,5.91,4.53c.31,2.57-1.05,4.84-4.32,5.24a5.09,5.09,0,0,1-5.87-4.55A4.48,4.48,0,0,1,4.9,116.25ZM6.21,124c2.3-.28,3-1.83,2.87-3.14a3.3,3.3,0,0,0-3.9-2.69c-2.27.28-3,1.79-2.83,3.2A3.25,3.25,0,0,0,6.21,124Z"/><path d="M10.68,128.27c.84-.15,1.18.16,1.35.86l.63,2.73c.45,1.93-.14,3.28-1.83,3.67s-3-.92-3.46-2.3A4.34,4.34,0,0,0,5.2,136c-.17.44-.35.69-.75.79a.84.84,0,0,1-1-.66,1.85,1.85,0,0,1,.1-.94,7,7,0,0,1,3.41-3.91l-.11-.49-3.41.6a.92.92,0,0,1-1.19-.73c-.14-.61.18-.93.77-1.06ZM9,132.59c.21.89.63,1.33,1.34,1.17s.84-.69.65-1.51l-.49-2.09-2,.36Z"/><path d="M14.55,143.94l-.7-1.83a.84.84,0,0,1,.48-1.21c.41-.16.9,0,1.21.77l2,5.29a.84.84,0,0,1-.47,1.21c-.42.16-.91,0-1.22-.76l-.66-1.75-6.86,2.22a.91.91,0,0,1-1.27-.56c-.23-.58,0-.94.61-1.16Z"/><path d="M17.7,150.1a1,1,0,0,1,1.51.54l1.24,2.51c.87,1.78.6,3.23-1,4s-3.11-.23-3.89-1.47a4.35,4.35,0,0,0-1.47,3.24c-.08.46-.19.75-.55.93a.84.84,0,0,1-1.17-.4,1.8,1.8,0,0,1-.11-.94,7,7,0,0,1,2.43-4.58l-.22-.46-3.18,1.36a.92.92,0,0,1-1.33-.44c-.27-.56,0-.94.51-1.21ZM17,154.69c.4.83.91,1.16,1.56.84s.67-.86.3-1.61L18,152l-1.85.8Z"/><path d="M16.24,162.61l.3.5,5.7-3.06-.27-.46a.84.84,0,0,1,.25-1.28c.38-.22.88-.18,1.32.55L25,161.27a.84.84,0,0,1-.25,1.28c-.38.23-.89.19-1.33-.54l-.23-.38-5.7,3.06.35.58a.83.83,0,0,1-.24,1.27c-.39.23-.9.19-1.33-.54l-1.6-2.66a.84.84,0,0,1,.25-1.28C15.3,161.84,15.8,161.88,16.24,162.61Z"/><path d="M23.63,172.36l-1.9-2.62-1.85.47a1,1,0,0,1-1.16-.33.87.87,0,0,1,.16-1.27,1.3,1.3,0,0,1,.52-.22l8.1-1.81a1.21,1.21,0,0,1,1.41.46,1.11,1.11,0,0,1-.05,1.39L24.08,175a1.52,1.52,0,0,1-.31.31.93.93,0,0,1-1.32-.25,1,1,0,0,1,.08-1.23Zm-.09-3.07,1.19,1.64,1.84-2.38Z"/><path d="M32.06,173.87l-1.27-1.49a.84.84,0,0,1,0-1.3c.33-.28.84-.33,1.39.32l3.69,4.3a.83.83,0,0,1,0,1.29c-.35.3-.85.34-1.41-.31l-1.22-1.41-5.7,4.41a.92.92,0,0,1-1.39-.1c-.4-.47-.27-.9.19-1.3Z"/><path d="M37.18,178.51a.91.91,0,0,1,1.39,0c.45.43.36.88-.06,1.32l-2.08,1.94,2.82,2.71,2.09-1.95a.91.91,0,0,1,1.39,0c.45.43.36.87-.07,1.31l-5.79,5.44a.91.91,0,0,1-1.39,0,.86.86,0,0,1,.06-1.32l2.45-2.3-2.82-2.7-2.44,2.31a.91.91,0,0,1-1.39,0c-.45-.43-.36-.87.06-1.31Z"/><path d="M45,185.72a.92.92,0,0,1,1.38-.18c.49.39.44.84.07,1.32l-4.74,5.43,3.17,2.48a.83.83,0,0,1,.23,1.27c-.28.36-.77.5-1.44,0L40,193.14c-.64-.49-.54-1-.09-1.61Z"/><path d="M52.09,191.24a1,1,0,0,1,1.58-.32l4,2.57a.82.82,0,0,1,.34,1.24c-.24.39-.72.57-1.43.11l-3.29-2.11-1.22,1.72,2.57,1.65a.83.83,0,0,1,.34,1.25c-.24.38-.71.57-1.43.11L51,195.85,49.51,198,53,200.25a.82.82,0,0,1,.34,1.24c-.24.39-.71.57-1.43.11l-4-2.6c-.68-.44-.64-1-.24-1.6Z"/><path d="M61.83,197.78l-1.74-.9a.83.83,0,0,1-.45-1.22c.2-.39.65-.62,1.41-.23l5,2.6a.83.83,0,0,1,.46,1.21c-.21.4-.66.63-1.42.24l-1.66-.86-3.63,6.23a.92.92,0,0,1-1.32.43c-.56-.29-.59-.74-.31-1.28Z"/><path d="M68.29,200.27a1,1,0,0,1,1.48-.6l4.4,1.78a.84.84,0,0,1,.57,1.16c-.17.42-.6.69-1.39.37l-3.63-1.47-.88,1.92,2.84,1.15a.82.82,0,0,1,.56,1.16c-.17.42-.6.69-1.38.37L68.1,205,67,207.38,70.87,209a.83.83,0,0,1,.57,1.16c-.17.42-.6.69-1.39.37l-4.46-1.81c-.75-.3-.81-.85-.53-1.53Z"/><path d="M75.5,208.91a1,1,0,0,1,.7.81,2.14,2.14,0,0,0,1.57,1.68,1.22,1.22,0,0,0,1.66-.75c.21-.7-.19-1.25-1.43-2.11s-2.13-2.07-1.7-3.52c.48-1.61,2.13-2.26,4-1.71a3.72,3.72,0,0,1,2.61,2.27,1,1,0,0,1,0,.69.89.89,0,0,1-1.18.64,1.12,1.12,0,0,1-.66-.74,1.85,1.85,0,0,0-1.4-1.23c-.65-.2-1.32-.08-1.49.5s.2,1.11,1.38,1.93c1.59,1.16,2.29,2.09,1.81,3.7a3.25,3.25,0,0,1-4.25,2,4,4,0,0,1-2.88-2.85,1.3,1.3,0,0,1,0-.65A.93.93,0,0,1,75.5,208.91Z"/><path d="M93.48,214l-3.18-.51-1,1.63a1,1,0,0,1-1.06.59.86.86,0,0,1-.78-1,1.28,1.28,0,0,1,.21-.53l4.45-7a1.21,1.21,0,0,1,1.33-.66,1.1,1.1,0,0,1,.94,1l1.24,8a1.69,1.69,0,0,1,0,.45.93.93,0,0,1-1.11.75,1,1,0,0,1-.81-.93Zm-2.23-2.11,2,.32-.38-3Z"/><path d="M99.41,208.61c.09-.83.45-1.28,1.17-1.24.55,0,.83.32,1.2,1l3.09,5.59.59-5.32c.07-.52.31-1,1-.93s.84.43.81,1l-.89,7.79c-.08.68-.39,1.07-1,1-.5,0-.78-.29-1.08-.82l-3.26-6-.6,5.53c-.07.52-.31,1-1,.94s-.84-.44-.81-1Z"/><path d="M110.31,208.85c0-.85.37-1.14,1.09-1.18l1.63-.08c2.74-.14,5.07,1.28,5.23,4.32s-1.74,5.43-5.25,5.61l-1.6.08c-.8,0-1.08-.43-1.12-1.16Zm2.78,6.93a3.15,3.15,0,0,0,3.24-3.65,2.76,2.76,0,0,0-3.18-2.82l-1,.05v6.47Z"/><path d="M126.1,212.86a1,1,0,0,1,1,.39,2.15,2.15,0,0,0,2.17.76,1.2,1.2,0,0,0,1.12-1.43c-.14-.72-.75-1-2.24-1.21s-2.85-.84-3.14-2.33c-.33-1.65.84-3,2.75-3.36a3.69,3.69,0,0,1,3.36.8,1,1,0,0,1,.35.59.91.91,0,0,1-.75,1.12,1.18,1.18,0,0,1-.94-.35,1.85,1.85,0,0,0-1.8-.45c-.67.13-1.21.54-1.09,1.14s.69.89,2.11,1.07c1.95.29,3,.79,3.32,2.44a3.25,3.25,0,0,1-2.85,3.7,3.94,3.94,0,0,1-3.87-1.2,1.24,1.24,0,0,1-.29-.57A.93.93,0,0,1,126.1,212.86Z"/><path d="M133.18,206.24a1.3,1.3,0,0,1-.15-.32,1,1,0,0,1,.64-1.32,1,1,0,0,1,1.29.61l2.73,5.11.07-5.89c0-.82.23-1.2.81-1.38s1.08,0,1.48.67l3,4.9-.17-6.07a1,1,0,0,1,.7-1.1.91.91,0,0,1,1.25.62,1.75,1.75,0,0,1,.06.48l0,7.86a1.31,1.31,0,0,1-1,1.33,1.25,1.25,0,0,1-1.47-.67l-3-4.89-.1,5.83a1.4,1.4,0,0,1-1,1.49,1.17,1.17,0,0,1-1.45-.68Z"/><path d="M149.79,207.67l.53-.24L148,201.38l-.49.21a.85.85,0,0,1-1.24-.42c-.17-.4-.06-.89.72-1.23l2.58-1.13a.83.83,0,0,1,1.23.41c.18.42.07.91-.71,1.25l-.4.18,2.28,6,.62-.27a.83.83,0,0,1,1.23.41c.18.41.07.91-.71,1.25l-2.84,1.23a.85.85,0,0,1-1.24-.42C148.9,208.5,149,208,149.79,207.67Z"/><path d="M153.63,198.12a1,1,0,0,1,1.73-1.15l5,4.52-.76-6.91a1.18,1.18,0,0,1,.52-1.28,1,1,0,0,1,1.37.39l4.4,6.45.07.14a.86.86,0,0,1-.31,1.29.91.91,0,0,1-1.29-.36l-2.73-4,.54,5.25a1.22,1.22,0,0,1-.64,1.36,1.16,1.16,0,0,1-1.45-.27l-3.82-3.4,1.69,4.61a1,1,0,0,1-.45,1.32.79.79,0,0,1-1.15-.35c-.05-.09-.08-.18-.12-.27Z"/><path d="M165,191.44a1,1,0,0,1,1.56-1.38l5.57,3.83-1.66-6.75a1.19,1.19,0,0,1,.35-1.34,1,1,0,0,1,1.41.21l5.21,5.82.09.12a.88.88,0,0,1-.14,1.33.92.92,0,0,1-1.33-.2l-3.22-3.55,1.22,5.14a1.24,1.24,0,0,1-.45,1.43,1.16,1.16,0,0,1-1.48-.09l-4.23-2.87,2.27,4.35a1,1,0,0,1-.27,1.37.78.78,0,0,1-1.18-.19,2.26,2.26,0,0,1-.16-.26Z"/><path d="M175.05,183.67a1,1,0,0,1,.07-1.61l3.46-3.25a.83.83,0,0,1,1.29,0c.31.33.38.83-.24,1.42l-2.85,2.68,1.38,1.6,2.22-2.1a.84.84,0,0,1,1.3,0c.31.33.37.84-.24,1.42l-2.17,2,1.7,2,3.05-2.86a.82.82,0,0,1,1.29,0c.31.33.38.83-.24,1.41l-3.51,3.3c-.59.56-1.1.38-1.61-.15Z"/><path d="M181.8,177.12a1,1,0,0,1-.09-1.6l1.85-2.11c1.31-1.5,2.74-1.8,4.05-.65s1,3,.15,4.15a4.33,4.33,0,0,0,3.55.12,1.05,1.05,0,0,1,1.07.15.84.84,0,0,1,.07,1.23,1.8,1.8,0,0,1-.82.47,7,7,0,0,1-5.16-.5l-.34.39,2.48,2.41a.91.91,0,0,1,.1,1.39c-.41.47-.86.4-1.32,0Zm4.49-1.15c.61-.7.72-1.29.17-1.77s-1.05-.28-1.6.35l-1.42,1.61,1.45,1.4Z"/><path d="M192.54,172.84a1,1,0,0,1,1-.39,2.17,2.17,0,0,0,2.11-.93,1.21,1.21,0,0,0-.16-1.81c-.6-.43-1.25-.24-2.46.65s-2.66,1.33-3.89.45-1.43-2.77-.29-4.34a3.66,3.66,0,0,1,3-1.71.94.94,0,0,1,.66.2.89.89,0,0,1,.21,1.32,1.1,1.1,0,0,1-.92.38,1.85,1.85,0,0,0-1.62.91c-.4.55-.51,1.22,0,1.58s1.12.17,2.28-.66c1.61-1.13,2.72-1.48,4.09-.49a3.25,3.25,0,0,1,.44,4.65,4,4,0,0,1-3.64,1.77,1.16,1.16,0,0,1-.61-.23A.93.93,0,0,1,192.54,172.84Z"/><path d="M87.83,5.35a3.56,3.56,0,0,1,3.11-4.1,3.54,3.54,0,0,1,4.23,3c.44,2.61-1.38,5.83-2.82,7.31L89.67,12a15.48,15.48,0,0,0,3-4.27,1.82,1.82,0,0,1-.9.44A3.38,3.38,0,0,1,87.83,5.35Zm2-.32a1.77,1.77,0,0,0,3.5-.55,1.77,1.77,0,1,0-3.5.55Z"/><path d="M97.19,3.89a3.71,3.71,0,0,1,7.41-.45c.19,2.64-1.91,5.68-3.47,7l-2.71.21a15.36,15.36,0,0,0,3.35-4,1.74,1.74,0,0,1-.94.36A3.36,3.36,0,0,1,97.19,3.89Zm2-.14a1.72,1.72,0,0,0,1.9,1.63,1.7,1.7,0,0,0,1.63-1.87,1.77,1.77,0,1,0-3.53.24Z"/><path d="M114.2,6.84,114,10.32l-2.18-.14L112.46,0l3.3.21c2.35.15,3.85,1.42,3.7,3.61s-1.78,3.25-4.13,3.1ZM114.52,2l-.2,3,1.24.08a1.42,1.42,0,0,0,1.7-1.41A1.47,1.47,0,0,0,115.7,2Z"/><path d="M123.49,7.69l-.57,3.52-2.11-.33L122.42.8l3.5.57c2.37.38,3.75,1.79,3.4,3.94a3,3,0,0,1-2.48,2.59l.39,1.55a1.2,1.2,0,0,0,1,1,3.32,3.32,0,0,0,.43,0l-.27,1.68a2.79,2.79,0,0,1-.95,0c-1.11-.18-1.64-.87-2.08-2.49l-.48-1.74ZM124.25,3l-.49,3,1.5.24A1.45,1.45,0,0,0,127.15,5c.16-1-.46-1.62-1.46-1.78Z"/><path d="M137,3.59l.08,0,2.09,11.29-2.2-.59-.33-2-3.68-1-1.23,1.53-2.2-.59Zm-.59,7.12c-.17-1.15-.33-2.31-.4-3.25-.47.61-1.34,1.78-2,2.6Z"/><path d="M150.06,10.79a6.15,6.15,0,0,0-2.39-1.65,3.22,3.22,0,0,0-4.32,1.9,3.18,3.18,0,0,0,1.93,4.25,6.38,6.38,0,0,0,3,.38l-.71,1.9a7.12,7.12,0,0,1-3.16-.46,5.19,5.19,0,0,1-3.12-6.83,5.22,5.22,0,0,1,6.91-3.07,6.23,6.23,0,0,1,2.54,1.71Z"/><path d="M156.79,13.23l-3.67,7.52-2-1,3.67-7.52L152.27,11l.81-1.64,7.09,3.46-.81,1.64Z"/><path d="M157.22,22.94l5.1-8.84,1.89,1.09L159.11,24Z"/><path d="M172.33,23.51a6.23,6.23,0,0,0-1.93-2.18,3.3,3.3,0,1,0-3.79,5.41,6.46,6.46,0,0,0,2.84,1.09L168.3,29.5a7,7,0,0,1-3-1.2,5.3,5.3,0,1,1,6.05-8.7,6.38,6.38,0,0,1,2.06,2.26Z"/><path d="M169.76,31.28l6.55-7.81,5,4.21-1.17,1.4-3.35-2.81-1.5,1.78,2.85,2.38L177,31.78l-2.84-2.39-1.59,1.89,3.52,2.95-1.18,1.4Z"/><path d="M176.5,36.57,178,35.09a6.61,6.61,0,0,0,1.28,2.34,3.71,3.71,0,0,0,.68.6c.63.47,1.16.58,1.52.23s.3-1.16-.33-2.51c-.8-1.73-1-3,.25-4.25s3.17-1,4.72.52a7,7,0,0,1,1.51,2.25l-1.42,1.42a5.18,5.18,0,0,0-1.32-2.21c-.74-.74-1.51-.93-2-.47s-.32,1.1.28,2.45c.77,1.75,1,3.07-.19,4.28s-3.07,1.09-4.77-.61A8.08,8.08,0,0,1,176.5,36.57Z"/><path d="M5.09,104.5h0a.77.77,0,0,1-.73-.8A105,105,0,0,1,5.8,90.56.75.75,0,0,1,6.68,90a.77.77,0,0,1,.62.88,101.84,101.84,0,0,0-1.45,12.94A.77.77,0,0,1,5.09,104.5Z"/><path d="M197.27,163.73a.8.8,0,0,1-.4-.11.76.76,0,0,1-.25-1.05A103.51,103.51,0,0,0,205.56,144a.76.76,0,1,1,1.43.52,105.25,105.25,0,0,1-9.07,18.83A.78.78,0,0,1,197.27,163.73Z"/><path d="M212,100.12a.77.77,0,0,1-.76-.7,102.15,102.15,0,0,0-24.13-57.3.77.77,0,0,1,.09-1.08.76.76,0,0,1,1.07.09A103.76,103.76,0,0,1,212.8,99.29a.75.75,0,0,1-.69.82Z"/><path d="M52.06,22.7a.76.76,0,0,1-.42-1.4A103.69,103.69,0,0,1,83.72,7.36a.76.76,0,1,1,.36,1.48A102.39,102.39,0,0,0,52.47,22.57.69.69,0,0,1,52.06,22.7Z"/></g></g></svg>