<svg xmlns="http://www.w3.org/2000/svg" viewBox="0 0 307.61 79.89"><title>haller</title><g id="Layer_2" data-name="Layer 2"><g id="Layer_1-2" data-name="Layer 1"><polygon points="138.27 17.08 138.27 41.18 132.44 41.18 132.44 4.74 142.95 4.74 145.03 26.81 147.27 4.74 157.84 4.74 157.84 41.18 150.66 41.18 150.66 17.34 147.9 41.18 141.03 41.18 138.27 17.08 138.27 17.08"/><polygon points="166.67 41.18 159.9 41.18 159.9 33.16 166.67 33.16 166.67 41.18 166.67 41.18"/><path d="M177.74,11.09H176v10.1h1.77a1.14,1.14,0,0,0,1.3-1.3v-7.5a1.14,1.14,0,0,0-1.3-1.3m8.64,17.54V41.18h-7.29V28.69a1.14,1.14,0,0,0-1.3-1.31H176v13.8h-7.29V4.74h10.88c4.53,0,6.77,2.24,6.77,6.77v7c0,3.12-1.15,4.68-3.13,5.41,2.24.62,3.18,2,3.18,4.68"/><polygon points="195.11 41.18 188.34 41.18 188.34 33.16 195.11 33.16 195.11 41.18 195.11 41.18"/><polygon points="215.36 19.42 215.36 4.74 222.64 4.74 222.64 41.18 215.36 41.18 215.36 25.93 211.71 25.93 211.71 41.18 204.43 41.18 204.43 4.74 211.71 4.74 211.71 19.42 215.36 19.42 215.36 19.42"/><path d="M232.12,29.52h3.23l-1.62-15.88-1.61,15.88Zm4.48,11.66L236,35.87h-4.58l-.52,5.31h-6.61L229.1,4.74H239l4.79,36.44Z"/><polygon points="252.79 4.74 252.79 34.67 258.04 34.67 258.04 41.18 245.5 41.18 245.5 4.74 252.79 4.74 252.79 4.74"/><polygon points="267.15 4.74 267.15 34.67 272.4 34.67 272.4 41.18 259.86 41.18 259.86 4.74 267.15 4.74 267.15 4.74"/><polygon points="287.75 4.74 287.75 11.25 281.5 11.25 281.5 19.42 287.49 19.42 287.49 25.93 281.5 25.93 281.5 34.67 287.86 34.67 287.86 41.18 274.22 41.18 274.22 4.74 287.75 4.74 287.75 4.74"/><path d="M299,11.09h-1.76v10.1H299a1.14,1.14,0,0,0,1.31-1.3v-7.5a1.14,1.14,0,0,0-1.31-1.3m8.64,17.54V41.18h-7.28V28.69a1.14,1.14,0,0,0-1.3-1.31h-1.82v13.8H289.9V4.74h10.88c4.53,0,6.76,2.24,6.76,6.77v7c0,3.12-1.14,4.68-3.12,5.41,2.24.62,3.17,2,3.17,4.68"/><path d="M140,64.33v7.4c0,2.28-1.18,3.42-3.42,3.42h-.76q-3.42,0-3.42-3.42V51.53q0-3.42,3.42-3.42h.76c2.24,0,3.38,1.14,3.38,3.38v7.07h-1.67v-7.1a1.56,1.56,0,0,0-1.79-1.79h-.64A1.56,1.56,0,0,0,134,51.46V71.81a1.56,1.56,0,0,0,1.79,1.78h.72a1.55,1.55,0,0,0,1.75-1.78V64.33Z"/><path d="M149.68,71.69c0,2.24-1.13,3.42-3.41,3.42h-.76c-2.28,0-3.42-1.18-3.42-3.42V48.34h1.67V71.77a1.59,1.59,0,0,0,1.82,1.79h.61c1.25,0,1.82-.58,1.82-1.79V48.34h1.67V71.69Z"/><path d="M159.29,65.62v6.11c0,2.24-1.14,3.38-3.42,3.38h-.61c-2.28,0-3.38-1.14-3.38-3.34V64.56h1.67v7.25c0,1.17.53,1.74,1.75,1.74h.49c1.22,0,1.79-.57,1.79-1.74V65.7a2.68,2.68,0,0,0-1.1-2.51l-2.93-2.32a4,4,0,0,1-1.67-3.72V51.53c0-2.24,1.14-3.38,3.42-3.38h.53c2.28,0,3.38,1.14,3.38,3.34v6.84h-1.67V51.46c0-1.18-.53-1.75-1.79-1.75h-.41c-1.22,0-1.79.57-1.79,1.75V57a2.67,2.67,0,0,0,1.14,2.54l2.77,2.17a4.16,4.16,0,0,1,1.83,3.87"/><polygon points="163.77 74.92 163.77 49.9 160.92 49.9 160.92 48.34 168.32 48.34 168.32 49.9 165.44 49.9 165.44 74.92 163.77 74.92 163.77 74.92"/><path d="M174.29,49.67h-.8a1.56,1.56,0,0,0-1.78,1.79V71.81a1.56,1.56,0,0,0,1.78,1.78h.8a1.56,1.56,0,0,0,1.78-1.78V51.46a1.56,1.56,0,0,0-1.78-1.79m.07,25.48h-.91c-2.28,0-3.41-1.14-3.41-3.42V51.53c0-2.28,1.13-3.42,3.41-3.42h.91q3.42,0,3.42,3.42v20.2q0,3.42-3.42,3.42"/><polygon points="181.5 51.95 181.62 64.29 181.62 74.92 180.02 74.92 180.02 48.34 182.49 48.34 185.68 71.01 188.87 48.34 191.34 48.34 191.34 74.92 189.71 74.92 189.71 64.22 189.78 51.95 186.48 74.92 184.85 74.92 181.5 51.95 181.5 51.95"/><polygon points="206.42 71.73 208.43 48.34 210.06 48.34 207.52 74.92 205.39 74.92 203.38 53.77 201.4 74.92 199.32 74.92 196.77 48.34 198.44 48.34 200.42 71.73 202.62 48.34 204.25 48.34 206.42 71.73 206.42 71.73"/><path d="M216.27,49.67h-.8a1.56,1.56,0,0,0-1.79,1.79V71.81a1.56,1.56,0,0,0,1.79,1.78h.8a1.56,1.56,0,0,0,1.78-1.78V51.46a1.56,1.56,0,0,0-1.78-1.79m.07,25.48h-.91q-3.42,0-3.42-3.42V51.53q0-3.42,3.42-3.42h.91q3.42,0,3.42,3.42v20.2q0,3.42-3.42,3.42"/><path d="M226.21,49.67h-.8a1.56,1.56,0,0,0-1.78,1.79V71.81a1.56,1.56,0,0,0,1.78,1.78h.8A1.56,1.56,0,0,0,228,71.81V51.46a1.56,1.56,0,0,0-1.78-1.79m.07,25.48h-.91q-3.41,0-3.41-3.42V51.53q0-3.42,3.41-3.42h.91q3.42,0,3.42,3.42v20.2q0,3.42-3.42,3.42"/><path d="M233.65,73.36h1.67a2.25,2.25,0,0,0,2.55-2.58V52.48a2.26,2.26,0,0,0-2.55-2.58h-1.67V73.36Zm-1.71-25h3.46c2.89,0,4.14,1.29,4.14,4.14v18.3c0,2.81-1.37,4.14-4.14,4.14h-3.46V48.34Z"/><polygon points="251.08 71.73 253.09 48.34 254.72 48.34 252.18 74.92 250.05 74.92 248.04 53.77 246.06 74.92 243.97 74.92 241.43 48.34 243.1 48.34 245.08 71.73 247.28 48.34 248.91 48.34 251.08 71.73 251.08 71.73"/><path d="M260.92,49.67h-.79a1.56,1.56,0,0,0-1.79,1.79V71.81a1.56,1.56,0,0,0,1.79,1.78h.79a1.56,1.56,0,0,0,1.79-1.78V51.46a1.56,1.56,0,0,0-1.79-1.79M261,75.15h-.91q-3.42,0-3.42-3.42V51.53q0-3.42,3.42-3.42H261q3.42,0,3.42,3.42v20.2q0,3.42-3.42,3.42"/><path d="M270.53,49.9h-2.16V61.33h1.94a1.76,1.76,0,0,0,2-2V51.65c0-1.18-.57-1.75-1.79-1.75m3.53,14.92v10.1h-1.7v-10a1.78,1.78,0,0,0-2.05-2.05h-1.94V74.92h-1.71V48.34h3.95c2.43,0,3.42,1.1,3.42,3.38V59c0,1.82-.73,2.66-1.86,3.08a2.44,2.44,0,0,1,1.89,2.73"/><polygon points="281.99 74.92 278.01 61.9 278.01 74.92 276.3 74.92 276.3 48.34 278.01 48.34 278.01 61.37 282.18 48.34 283.93 48.34 279.6 61.48 283.78 74.92 281.99 74.92 281.99 74.92"/><polygon points="287.43 74.92 285.76 74.92 285.76 48.34 287.43 48.34 287.43 74.92 287.43 74.92"/><polygon points="295.65 74.92 291.17 52.29 291.32 62.77 291.32 74.92 289.72 74.92 289.72 48.34 291.89 48.34 296.14 70.06 296.06 60.42 296.06 48.34 297.66 48.34 297.66 74.92 295.65 74.92 295.65 74.92"/><path d="M303.74,63V61.41h3.87V71.69q0,3.42-3.42,3.42h-.87q-3.42,0-3.42-3.42V51.53c0-2.24,1.14-3.38,3.42-3.38h.87c2.24,0,3.38,1.14,3.38,3.38V57.8H305.9V51.49c0-1.21-.57-1.78-1.74-1.78h-.8a1.56,1.56,0,0,0-1.79,1.78V71.77a1.56,1.56,0,0,0,1.79,1.78h.8c1.25,0,1.78-.57,1.78-1.78V63Z"/><path d="M115,29.22V75.14H69.68V56.76L86.48,61V18.9l-16.8,4.24V4.75H115V29.22ZM54.8,45.29H50.05v6.57l-12,3V25l12,3V34.6H69.68V28l12-3V54.89l-12-3V45.29H54.8ZM50.05,75.14H4.75V4.75h45.3V23.14L33.25,18.9V61l16.8-4.23V75.14ZM64.92,0V29.85H54.8V0H0V79.89H54.8V50H64.92V79.89h54.8V0Z"/></g></g></svg>