<svg xmlns="http://www.w3.org/2000/svg" viewBox="0 0 365.57 90.18"><title>maestro</title><g id="Layer_2" data-name="Layer 2"><g id="Layer_1-2" data-name="Layer 1"><path d="M0,1H16.5l16.24,23.9L48.9,1H65.16v62.9H45.43V41.37L32.63,60.05,19.73,41.37V63.85H0Z"/><path d="M90.37,1H105.3l23.63,62.9H109.32l-2-5.76H88.4l-2.05,5.76H66.74ZM102,44.12l-4.2-10.93L93.63,44.12Z"/><path d="M130.32,1h36.59V17.81H150.05v6.57h16.24V40H150.05v7.6h17.48V63.85H130.32Z"/><path d="M169,44.45c1.65.44,2.86.78,4.35,1a35.51,35.51,0,0,0,4.28.75,42.86,42.86,0,0,0,4.82.28c2.86,0,4.3-1.06,4.3-3.18a3.53,3.53,0,0,0-1.3-2.47,37.49,37.49,0,0,0-3.31-2.8c-1.34-1-2.77-2.16-4.3-3.41a31.13,31.13,0,0,1-4.29-4.3,22.07,22.07,0,0,1-3.32-5.46,17.44,17.44,0,0,1-1.3-6.95,17.91,17.91,0,0,1,1.58-7.75,15.67,15.67,0,0,1,4.39-5.61,19.84,19.84,0,0,1,6.58-3.4A27.26,27.26,0,0,1,189.52,0,44.65,44.65,0,0,1,194,.24l4,.42,4,.56V18.68l-1.69-.18c-.5-.07-1.07-.13-1.69-.19s-1.28-.09-2-.09c-.37,0-.84,0-1.4,0a8,8,0,0,0-1.59.24,3.19,3.19,0,0,0-1.3.65,1.59,1.59,0,0,0-.56,1.31q0,.75,1.26,1.86c.84.75,1.86,1.62,3.08,2.62s2.55,2.15,4,3.45a28.08,28.08,0,0,1,4,4.49,26.41,26.41,0,0,1,3.08,5.69,19.1,19.1,0,0,1,1.26,7.1,22.4,22.4,0,0,1-1.31,7.7,16.34,16.34,0,0,1-4.06,6.26,19.57,19.57,0,0,1-7,4.2A30.33,30.33,0,0,1,186,65.37a61.07,61.07,0,0,1-6.58-.33c-2-.22-3.87-.48-5.42-.79-1.81-.31-3.36-.69-5-1.12Z"/><path d="M214.39,17.81H203.5V1h43.57V17.81H235.36v46h-21Z"/><path d="M248.51,1h21.41A37.18,37.18,0,0,1,281,2.81a26.06,26.06,0,0,1,8.83,4.81,21.58,21.58,0,0,1,5.83,7.68,24.64,24.64,0,0,1,2.1,10.44,21.54,21.54,0,0,1-1.3,8,24.55,24.55,0,0,1-2.9,5.42,20.12,20.12,0,0,1-4.2,4.15L301,63.85H277.67L268.25,48V63.85H248.51Zm19.74,30.83h1.11a10.87,10.87,0,0,0,6-1.41c1.65-1.06,2.48-2.75,2.48-5.24s-.83-4.47-2.48-5.53a11,11,0,0,0-6-1.79h-1.11Z"/><path d="M27.34,74.13h9.87v2.26h-7.4v5.14h6.57v1.85H29.81v6.37H27.34Z"/><path d="M59.4,89.75H56.94V74.13h5.18c3.66,0,5.76,2.09,5.76,5.06a4.36,4.36,0,0,1-3,4.41l3.78,6.15h-2.7L62.42,84h-3ZM62,81.94c2.33,0,3.29-.91,3.29-2.78s-1-2.77-3.29-2.77H59.4v5.55Z"/><path d="M98.52,87.08H92.16l-1.22,2.67H88.46l6.86-15.62h.14l6.88,15.62h-2.6ZM93.06,85h4.56l-2.26-5.48Z"/><path d="M157.45,74.13h9.66v2.26h-7.19v4.73h6.37V83h-6.37v4.52h7.81v2.26H157.45Z"/><path d="M187.45,74.13h2.6l3.36,10.15,4.43-10.15H198l4.45,10.15,3.29-10.15h2.44l-5.48,15.62h-.14L197.9,78.83l-4.74,10.92h-.11Z"/><path d="M228,82.14a8.09,8.09,0,1,1,8.08,8A7.92,7.92,0,0,1,228,82.14Zm13.61,0A5.53,5.53,0,1,0,236,88,5.49,5.49,0,0,0,241.56,82.14Z"/><path d="M266.6,89.75h-2.46V74.13h5c3.66,0,5.76,2.09,5.76,5.06a4.38,4.38,0,0,1-3,4.41l3.77,6.15H273L269.48,84H266.6Zm2.49-7.81c2.32,0,3.29-.91,3.29-2.78s-1-2.77-3.29-2.77H266.6v5.55Z"/><path d="M301.34,80.83l6.33,8.92h-3l-5-7L297.85,85v4.77h-2.27V74.13h2.27v7.76l6.27-7.76h2.77Z"/><path d="M329.54,85.85A3.81,3.81,0,0,0,333.09,88c1.66,0,2.76-.78,2.76-2,0-1.47-1.13-2-2.51-2.65l-1.08-.48c-2.3-1-3.89-2.17-3.89-4.61s1.82-4.07,4.49-4.07a4.87,4.87,0,0,1,4.6,2.46l-1.86,1.22a2.89,2.89,0,0,0-2.69-1.52c-1.34,0-2.15.74-2.15,1.82,0,1.24.79,1.68,2.49,2.44l1.08.49c2.37,1,4,2.18,4,4.83,0,2.88-2.21,4.33-5.18,4.33a6.06,6.06,0,0,1-5.64-3.29Z"/><path d="M122.23,74h.11l7.53,8.68L137.31,74h.11V89.77h-2.29v-10l-5.26,6.28h-.11l-5.24-6.28v10h-2.29Z"/><path d="M363,20a32.6,32.6,0,0,0-17.4-17.4,32.61,32.61,0,0,0-25.38,0A32.51,32.51,0,0,0,302.82,20a31.64,31.64,0,0,0-2.57,12.69,31.64,31.64,0,0,0,2.57,12.69,32.6,32.6,0,0,0,17.4,17.4,32.61,32.61,0,0,0,25.38,0A32.68,32.68,0,0,0,363,45.35a31.81,31.81,0,0,0,2.57-12.69A31.81,31.81,0,0,0,363,20ZM346.18,44c-.52.82-1.07,1.63-1.65,2.41A43.37,43.37,0,0,1,333,57.25a43.55,43.55,0,0,1-11.43-10.64c-.66-.9-1.29-1.82-1.89-2.77a7.32,7.32,0,0,1,13.3-6.07,7.32,7.32,0,0,1,12.63-.57h0a7.33,7.33,0,0,1,.61,6.82Zm.42-9.94a10.1,10.1,0,0,0-13.67-.64,10.09,10.09,0,0,0-13.65.67,11.51,11.51,0,0,1-.17-1.87c0-8.16,10.39-9.8,13.83-24a33.24,33.24,0,0,0,3.92,8.27A11.53,11.53,0,0,1,330.28,23a13.66,13.66,0,0,0,9.54-2.52,13.73,13.73,0,0,1-6.36,7.67,16.14,16.14,0,0,0,9.89-3.78c2,2.32,3.41,4.55,3.41,7.89A11.29,11.29,0,0,1,346.6,34.08Z"/></g></g></svg>