<svg xmlns="http://www.w3.org/2000/svg" viewBox="0 0 520.34 156.28"><title>ssc</title><g id="Layer_2" data-name="Layer 2"><g id="Layer_1-2" data-name="Layer 1"><g id="Layer_2-2" data-name="Layer 2"><g id="Layer_1-2-2" data-name="Layer 1-2"><path d="M447.77,102.08h3.5c.16,1.44.77,2.64,3.15,2.64,1.61,0,2.67-.88,2.67-2.15s-.68-1.73-3-2.09c-4.15-.54-5.82-1.78-5.82-4.9,0-2.77,2.31-4.8,5.87-4.8s5.75,1.62,6.05,4.82h-3.37a2.33,2.33,0,0,0-2.68-2.14c-1.6,0-2.42.75-2.42,1.84s.52,1.7,3,2c3.91.5,5.92,1.56,5.92,4.9,0,2.87-2.35,5.15-6.17,5.15C450,107.38,448,105.31,447.77,102.08Z"/><path d="M463.17,103.63v-6h-1.52V95.31h1.52V92.76h3.22v2.55h2.48v2.33h-2.44v5.68c0,1,.46,1.39,1.31,1.39a3.1,3.1,0,0,0,1.24-.23V107a6.1,6.1,0,0,1-2,.32C464.5,107.36,463.17,106.1,463.17,103.63Z"/><path d="M469.94,101.38v-.18A5.85,5.85,0,0,1,476,95.06c3.05,0,5.76,1.78,5.76,6V102h-8.51c.09,2,1.15,3.09,2.93,3.09,1.52,0,2.26-.65,2.47-1.64h3.08c-.38,2.55-2.41,4-5.63,4C472.53,107.38,469.94,105.15,469.94,101.38Zm8.64-1.42c-.11-1.78-1-2.64-2.58-2.64a2.71,2.71,0,0,0-2.7,2.64Z"/><path d="M483.05,103.86c0-2.77,2.53-3.79,6.14-3.79h1.33v-.46c0-1.38-.43-2.16-1.92-2.16a1.78,1.78,0,0,0-2,1.67h-3.1c.2-2.8,2.41-4,5.3-4s4.94,1.17,4.94,4.37v7.7h-3.18v-1.42A4,4,0,0,1,487,107.4C484.87,107.38,483.05,106.33,483.05,103.86Zm7.47-.85v-1h-1.27c-1.89,0-3,.41-3,1.67,0,.86.52,1.42,1.72,1.42C489.41,105.1,490.52,104.31,490.52,103Z"/><path d="M495.14,101.4v-.18c0-3.88,2.23-6.16,5.19-6.16a3.93,3.93,0,0,1,3.72,2V90h3.25v17.14h-3.25v-2a4.28,4.28,0,0,1-3.79,2.21C497.39,107.38,495.14,105.33,495.14,101.4Zm9-.11v-.18c0-2.35-1-3.54-2.82-3.54s-2.84,1.24-2.84,3.58v.18c0,2.35,1.13,3.5,2.76,3.5S504.14,103.68,504.14,101.29Z"/><path d="M512.87,105.94l-4.69-10.6h3.52l2.86,7.08,2.64-7.08h3.14L514,111.15H510.8Z"/><path d="M447.77,124.65h3.5c.16,1.44.77,2.63,3.15,2.63,1.61,0,2.67-.87,2.67-2.14s-.68-1.73-3-2.1c-4.15-.54-5.82-1.78-5.82-4.89,0-2.77,2.31-4.81,5.87-4.81s5.75,1.62,6.05,4.83h-3.37c-.22-1.47-1.08-2.14-2.68-2.14s-2.42.74-2.42,1.84.52,1.69,3,2c3.91.5,5.92,1.56,5.92,4.9,0,2.86-2.35,5.14-6.17,5.14C450,130,448,127.87,447.77,124.65Z"/><path d="M463.17,126.2v-6h-1.52v-2.3h1.52v-2.56h3.22v2.56h2.48v2.3h-2.44v5.69c0,.92.46,1.38,1.31,1.38a3.1,3.1,0,0,0,1.24-.23v2.53a5.84,5.84,0,0,1-2,.32C464.5,129.92,463.17,128.66,463.17,126.2Z"/><path d="M470.22,126.43c0-2.77,2.53-3.79,6.14-3.79h1.33v-.46c0-1.39-.43-2.17-1.92-2.17a1.78,1.78,0,0,0-2,1.67h-3.09c.21-2.8,2.42-4,5.31-4s4.94,1.17,4.94,4.37v7.69h-3.19v-1.42a4,4,0,0,1-3.56,1.67C472,130,470.22,128.91,470.22,126.43Zm7.47-.86v-1h-1.26c-1.9,0-3,.4-3,1.67,0,.85.51,1.42,1.71,1.42,1.43,0,2.55-.79,2.55-2.1Z"/><path d="M483.8,126.2v-6h-1.51v-2.3h1.51v-2.56H487v2.56h2.48v2.3H487v5.69c0,.92.46,1.38,1.31,1.38a3.14,3.14,0,0,0,1.24-.23v2.53a5.88,5.88,0,0,1-2,.32C485.13,129.92,483.8,128.66,483.8,126.2Z"/><path d="M490.57,124v-.18a5.86,5.86,0,0,1,6.07-6.14c3.05,0,5.75,1.78,5.75,6v.9h-8.5c.09,2,1.15,3.09,2.93,3.09,1.51,0,2.26-.65,2.46-1.64h3.09c-.38,2.55-2.41,4-5.64,4C493.17,130,490.57,127.71,490.57,124Zm8.64-1.42c-.11-1.79-1-2.65-2.57-2.65a2.72,2.72,0,0,0-2.71,2.65Z"/><path d="M448,144.3v-.17c0-4.9,3.43-8.24,8-8.24,3.88,0,6.77,1.9,7.15,5.87h-3.74a3.08,3.08,0,0,0-3.39-3c-2.55,0-4.17,2-4.17,5.32v.19c0,3.34,1.54,5.28,4.2,5.28a3.36,3.36,0,0,0,3.68-3.1h3.59c-.41,4-3.27,6.05-7.24,6.05C450.75,152.51,448,149.26,448,144.3Z"/><path d="M468.93,151.07l-4.7-10.6h3.53l2.86,7.08,2.64-7.08h3.14L470,156.28h-3.16Z"/><path d="M476.62,146.51v-.18a5.86,5.86,0,0,1,6.1-6.13c2.73,0,5.25,1.19,5.53,4.57h-3.1a2.16,2.16,0,0,0-2.39-2c-1.69,0-2.81,1.26-2.81,3.52v.18c0,2.36,1.06,3.59,2.88,3.59a2.41,2.41,0,0,0,2.53-2.26v0h2.95c-.18,2.8-2.21,4.74-5.64,4.74S476.62,150.37,476.62,146.51Z"/><path d="M490.3,135.12h3.23v17.14H490.3Z"/><path d="M495.59,146.51v-.18a5.85,5.85,0,0,1,6.06-6.13c3.05,0,5.76,1.78,5.76,6v.9H498.9c.09,2,1.15,3.09,2.93,3.09,1.52,0,2.26-.65,2.47-1.64h3.08c-.38,2.54-2.41,4-5.63,4C498.18,152.51,495.59,150.28,495.59,146.51Zm8.64-1.42c-.11-1.78-1-2.64-2.58-2.64a2.71,2.71,0,0,0-2.7,2.64Z"/><path d="M508.71,148.57h3c.14,1.05.66,1.67,2.08,1.67,1.26,0,1.84-.46,1.84-1.29s-.7-1.15-2.39-1.38c-3.13-.46-4.36-1.39-4.36-3.69,0-2.46,2.26-3.69,4.67-3.69,2.62,0,4.59.92,4.88,3.66h-3a1.59,1.59,0,0,0-1.84-1.43c-1.12,0-1.67.5-1.67,1.22s.56,1,2.28,1.29c3,.43,4.58,1.17,4.58,3.69s-1.85,3.88-5,3.88S508.84,151.12,508.71,148.57Z"/><rect x="448.2" y="82.91" width="12.37" height="2.31"/><path d="M88,66.16c3.18,0,4.81,1.65,3.62,3.66s.46,3.69,3.62,3.69H121.1c3.13,0,6.83-2,8.23-4.33s0-4.8-3-5.36L66.67,52.89C63.6,52.33,62.38,49.66,64,47l4.21-7.14L0,53.31,55.25,67.2a9.53,9.53,0,0,1,4.09-1Z"/><path d="M422.45,50.36H393c-3.13,0-4.39-2.2-2.8-4.9l.21-.35c1.58-2.7.32-4.91-2.8-4.91H362.81a11,11,0,0,0-8.57,4.91L342,65.92l-3.32,5.66c-.24.43,2.1.78,5.22.78h25.66a11.05,11.05,0,0,0,8.58-4.9l.21-.35a11,11,0,0,1,8.57-4.9h29.84c3.13,0,4.37,2.19,2.76,4.88l-1.44,2.42,89.85-16.2-72-16.1L431,45.47A11.07,11.07,0,0,1,422.45,50.36Z"/><path d="M294.16,80.45,323.52,31a11.12,11.12,0,0,1,8.59-4.89h54.16L269.55,0l-132,26.11h54.12c3.13,0,4.39,2.2,2.8,4.9l-5.66,9.61a11.18,11.18,0,0,1-8.57,5l-28.58.27c-3,0-4.91-.85-4.26-2s-1.27-2-4.26-2H114.63c-3.13,0-6.11.72-6.63,1.6s1.59,2,4.68,2.47L175,55.65c3.09.46,4.33,3.08,2.74,5.77l-11.19,19a11.08,11.08,0,0,1-8.57,4.9H127.44l84.68,21.28L330.2,85.34H296.94C293.82,85.34,292.56,83.14,294.16,80.45Zm-11.81,4.89H172.42c-3.13,0-4.39-2.21-2.8-4.9l5.53-9.38a11,11,0,0,1,8.57-4.9h28.64c3.18,0,4.81,1.65,3.62,3.66s.47,3.69,3.63,3.69h25.87c3.13,0,6.83-2,8.23-4.33s0-4.8-3-5.36L191,52.89c-3.07-.56-4.29-3.23-2.7-5.92l9.39-16a11.1,11.1,0,0,1,8.58-4.89H317.17c3.13,0,4.39,2.2,2.81,4.9l-5.68,9.61a11.14,11.14,0,0,1-8.57,5L276,45.85c-3,0-4.9-.85-4.25-2s-1.27-2-4.26-2H239c-3.13,0-6.11.72-6.62,1.6s1.58,2,4.67,2.47l62.33,9.68c3.09.46,4.32,3.08,2.73,5.77l-11.19,19A11,11,0,0,1,282.35,85.34Z"/></g></g></g></g></svg>