<svg xmlns="http://www.w3.org/2000/svg" viewBox="0 0 380.53 104.6"><defs><style>.cls-1{fill:#ccc;}</style></defs><title>stab</title><g id="Layer_2" data-name="Layer 2"><g id="Layer_1-2" data-name="Layer 1"><path d="M162,53.48l-.42-3.3c-.08-.58-.21-.71-.58-.79a11.52,11.52,0,0,0-2.43-.25c-2.42,0-3.67,1.13-3.67,2.75,0,5.31,13.91,1.63,13.91,12.87,0,7.06-5.47,9.95-12.12,9.95a29.49,29.49,0,0,1-10.07-1.8V64h5.81l.88,4.14c.08.46.21.58.71.67a17.09,17.09,0,0,0,2.72.25c2.88,0,4.34-1.13,4.34-3,0-5.56-13.91-1.55-13.91-12.7,0-6.69,5-9.91,11.61-9.91a23.79,23.79,0,0,1,9.07,1.8V54Z"/><path d="M187,72.83a17.31,17.31,0,0,1-7.39,1.88c-5.52,0-7.48-2.09-7.48-7.4V57.66c0-.25,0-.42-.34-.42h-2.88V52.77c3.68-.71,5.43-2.63,6.18-7.35h4.85v6.43c0,.3,0,.42.33.42H186v5h-6.1v8.57c0,2.38.5,3.26,2.72,3.26a10,10,0,0,0,3.09-.55Z"/><path d="M201.22,74.21l-.46-2.34-.29-.09a8.67,8.67,0,0,1-6.64,2.93c-5.31,0-6.27-3.6-6.27-6.48,0-4.18,2.63-6,7.94-6.27l4.3-.25V59.29c0-1.34,0-2.55-2-2.55-1.63,0-2.22.42-2.22,2.51l-7.27-.54c0-5.94,5.39-6.9,9.57-6.9,6.6,0,9.48,1.76,9.48,7.69v9.61c0,.67,0,.75.67.83l1.92.34v3.93Zm-1.42-8.9-1.71.08c-1.8.08-2.55.71-2.55,2.13a1.73,1.73,0,0,0,2,1.8,4.63,4.63,0,0,0,2.3-.55Z"/><path d="M211.11,74.21a38.78,38.78,0,0,0,.67-6.19V48.39a.79.79,0,0,0-.54-.88l-2.18-.8.55-4.05h9.86V54l.29.09a8.17,8.17,0,0,1,5.81-2.26c4.39,0,8.15,2.88,8.15,10.95,0,8.6-3.68,11.95-9,11.95A7.23,7.23,0,0,1,219.05,72l-.29.09-.29,2.13Zm8.44-6.06a5.48,5.48,0,0,0,2.51.58c2.3,0,3.42-2.13,3.42-5.68,0-2-.45-5.22-3.13-5.22a5.72,5.72,0,0,0-2.8.92Z"/><path d="M255.23,72.41a22.13,22.13,0,0,1-9.2,2.3c-8.35,0-11.24-5-11.24-11.62,0-7.64,4.85-11.28,10.87-11.28,5.72,0,9.52,2.93,9.52,10.4,0,.46,0,1.3-.12,2.26H243.11c.17,3.13,1.38,4.43,4,4.43a21.78,21.78,0,0,0,6.39-1.34Zm-7.69-11.7c0-3-.92-3.51-2.13-3.51s-2.13.63-2.3,3.51Z"/><path d="M256.15,74.21v-4l1.75-.26c.59-.08.67-.2.67-.83V58a.79.79,0,0,0-.54-.87l-2.18-.8.55-4h8.44l.58,3.64h.34c1.38-2.51,3.05-4.1,5.64-4.1a23.5,23.5,0,0,1,4,.42v8.36l-6.23-.21-.37-1.76c-.13-.42-.25-.54-.55-.54a3.85,3.85,0,0,0-1.88.79V69c0,.66.09.79.71.83l4.27.38v4Z"/><path d="M294,72.83a17.27,17.27,0,0,1-7.39,1.88c-5.52,0-7.48-2.09-7.48-7.4V57.66c0-.25,0-.42-.34-.42h-2.88V52.77c3.68-.71,5.43-2.63,6.18-7.35h4.85v6.43c0,.3,0,.42.34.42H293v5h-6.1v8.57c0,2.38.5,3.26,2.72,3.26a10,10,0,0,0,3.09-.55Z"/><path d="M307.76,59.25l-.38-2c0-.33-.13-.5-.42-.58a7.81,7.81,0,0,0-2.3-.29c-1.5,0-2.59.46-2.59,1.54s1.59,1.46,3.6,1.88c3.46.71,8.19,1.67,8.19,7.31,0,5.27-4.18,7.61-10,7.61-4.06,0-8.07-1-8.82-1.55v-6l5.48.33.37,2c.08.46.17.58.54.67a12.2,12.2,0,0,0,2.76.29c1.88,0,2.8-.55,2.8-1.72,0-1.5-2-1.83-4.3-2.21-3.34-.54-7.56-1.63-7.56-7.06s4.67-7.69,9.81-7.69a26.4,26.4,0,0,1,8.32,1.3v6.43Z"/><path d="M332.1,72.83a17.27,17.27,0,0,1-7.39,1.88c-5.52,0-7.48-2.09-7.48-7.4V57.66c0-.25,0-.42-.34-.42H314V52.77c3.68-.71,5.43-2.63,6.19-7.35H325v6.43c0,.3,0,.42.34.42h5.76v5H325v8.57c0,2.38.5,3.26,2.72,3.26a10,10,0,0,0,3.09-.55Z"/><path d="M332.15,63.13c0-6.76,3.76-11.32,11.74-11.32s11.2,4.64,11.2,11.12c0,7.14-3.6,11.78-11.62,11.78S332.15,70,332.15,63.13Zm14.79,0c0-4.63-1.26-5.93-3.18-5.93s-3.42,1.21-3.42,6,1.29,6.26,3.3,6.26S346.94,68,346.94,63.13Z"/><path d="M365.7,69.15c0,.67,0,.75.66.84l1.8.29v3.93h-12.7v-4l1.75-.25c.59-.09.67-.21.67-.84V58c0-.45-.12-.75-.54-.87l-2.13-.8.54-4h8.4l.33,2h.3a11.2,11.2,0,0,1,7.06-2.42c4.26,0,6.1,2.34,6.1,7.19V69.15c0,.67,0,.75.67.84l1.92.29v3.93H370.12V60.5c0-1.88-.29-2.67-1.58-2.67a5.13,5.13,0,0,0-2.84.92Z"/><path d="M155.84,82.74v1.63h-4.1V95h-1.63V84.37h-3.28V82.74Z"/><path d="M174.69,82.74v1.63h-4.91v4.1h4.09v1.64h-4.09v3.28h4.91V95h-6.55V82.74Z"/><path d="M195.3,93.55A5.09,5.09,0,0,1,193.54,95a5.37,5.37,0,0,1-2.3.47,4.73,4.73,0,0,1-1.83-.31,3.44,3.44,0,0,1-1.21-.79,4,4,0,0,1-.75-1,6.27,6.27,0,0,1-.44-1.22,8.46,8.46,0,0,1-.22-1.38,16.32,16.32,0,0,1,0-3,8.9,8.9,0,0,1,.22-1.4,6,6,0,0,1,.44-1.23A4.25,4.25,0,0,1,188.2,84a3.7,3.7,0,0,1,1.31-.87,5.38,5.38,0,0,1,2.06-.34,7.77,7.77,0,0,1,1,.06,5,5,0,0,1,.94.23,4.35,4.35,0,0,1,.87.42,3.47,3.47,0,0,1,.77.67l-1,1.1a3.36,3.36,0,0,0-1.25-.8,4.11,4.11,0,0,0-1.42-.23,4.22,4.22,0,0,0-.85.07,3.33,3.33,0,0,0-.65.2,2,2,0,0,0-.47.31,1.88,1.88,0,0,0-.35.39,2.64,2.64,0,0,0-.28.56,4.43,4.43,0,0,0-.23.83,8,8,0,0,0-.15,1.12c0,.43-.05.92-.05,1.47s0,1.11.06,1.55a7.7,7.7,0,0,0,.17,1.14,4.41,4.41,0,0,0,.26.82,2.79,2.79,0,0,0,.4.61,2.14,2.14,0,0,0,.69.51,2.78,2.78,0,0,0,1.21.22,3.66,3.66,0,0,0,1.67-.37,4.2,4.2,0,0,0,1.37-1.09Z"/><path d="M209.12,82.74v5.73h5.73V82.74h1.64V95h-1.64V90.11h-5.73V95h-1.64V82.74Z"/><path d="M231.9,82.74l5.65,10.05-.05-10.05h1.94V95h-2.51l-5.66-10,0,10H229.6V82.74Z"/><path d="M261.93,89a16.44,16.44,0,0,1-.09,1.76,8.12,8.12,0,0,1-.32,1.56,5,5,0,0,1-.6,1.3,4.58,4.58,0,0,1-1,1,4,4,0,0,1-1.35.66,6.17,6.17,0,0,1-1.81.23,5.74,5.74,0,0,1-2.39-.43,3.65,3.65,0,0,1-1.52-1.24,5.18,5.18,0,0,1-.79-2,13.7,13.7,0,0,1-.23-2.61A16.38,16.38,0,0,1,252,87.5a8.23,8.23,0,0,1,.32-1.57,5.67,5.67,0,0,1,.6-1.32,3.61,3.61,0,0,1,.94-1,4.52,4.52,0,0,1,1.36-.65,6.53,6.53,0,0,1,1.81-.23,5.75,5.75,0,0,1,2.4.44,3.67,3.67,0,0,1,1.52,1.25,5.23,5.23,0,0,1,.79,2A13.55,13.55,0,0,1,261.93,89Zm-1.78,0a13.4,13.4,0,0,0-.2-2.53,3,3,0,0,0-.59-1.43,2.55,2.55,0,0,0-1-.68,3.73,3.73,0,0,0-1.44-.24,3.67,3.67,0,0,0-1.42.23,2.31,2.31,0,0,0-.89.56,3.31,3.31,0,0,0-.49.7,4.12,4.12,0,0,0-.29.86,10.4,10.4,0,0,0-.17,1.18c0,.44,0,1,0,1.57a17.2,17.2,0,0,0,.12,2.2,4.13,4.13,0,0,0,.48,1.51,2.13,2.13,0,0,0,1,.87,4,4,0,0,0,1.6.28,4.12,4.12,0,0,0,1.47-.23,2.44,2.44,0,0,0,.89-.57,2.74,2.74,0,0,0,.49-.71,4.45,4.45,0,0,0,.28-.89,7.66,7.66,0,0,0,.16-1.18C260.13,90.07,260.15,89.57,260.15,89Z"/><path d="M276.32,82.74V93.39h4.92V95h-6.56V82.74Z"/><path d="M303.2,89a16.44,16.44,0,0,1-.09,1.76,8.12,8.12,0,0,1-.32,1.56,4.72,4.72,0,0,1-.61,1.3,4.31,4.31,0,0,1-.95,1,4.05,4.05,0,0,1-1.35.66,6.17,6.17,0,0,1-1.81.23,5.74,5.74,0,0,1-2.39-.43,3.65,3.65,0,0,1-1.52-1.24,5,5,0,0,1-.79-2,12.93,12.93,0,0,1-.23-2.61,16.38,16.38,0,0,1,.09-1.75,8.24,8.24,0,0,1,.31-1.57,5.67,5.67,0,0,1,.6-1.32,3.8,3.8,0,0,1,.95-1,4.46,4.46,0,0,1,1.35-.65,6.65,6.65,0,0,1,1.82-.23,5.81,5.81,0,0,1,2.4.44,3.64,3.64,0,0,1,1.51,1.25,5.23,5.23,0,0,1,.8,2A13.55,13.55,0,0,1,303.2,89Zm-1.78,0a13.4,13.4,0,0,0-.2-2.53,3,3,0,0,0-.59-1.43,2.55,2.55,0,0,0-1-.68,4.5,4.5,0,0,0-2.87,0,2.47,2.47,0,0,0-.89.56,3.24,3.24,0,0,0-.48.7,4.12,4.12,0,0,0-.29.86,10.4,10.4,0,0,0-.17,1.18c0,.44-.05,1-.05,1.57a17.2,17.2,0,0,0,.12,2.2,4.14,4.14,0,0,0,.47,1.51,2.21,2.21,0,0,0,1,.87,4,4,0,0,0,1.6.28,4.12,4.12,0,0,0,1.47-.23,2.44,2.44,0,0,0,.89-.57,2.47,2.47,0,0,0,.48-.71,3.87,3.87,0,0,0,.29-.89,7.66,7.66,0,0,0,.16-1.18C301.4,90.07,301.42,89.57,301.42,89Z"/><path d="M324.68,88.47v6.28c0,.1-.51.19-.8.27s-.61.15-.94.21-.67.11-1,.14-.74,0-1.11,0a7.86,7.86,0,0,1-1.93-.21,4.35,4.35,0,0,1-1.4-.59,3.62,3.62,0,0,1-1-.94,4.58,4.58,0,0,1-.59-1.24,6.69,6.69,0,0,1-.29-1.48,15.2,15.2,0,0,1-.08-1.69,17.46,17.46,0,0,1,.09-1.82,8.09,8.09,0,0,1,.31-1.57,5.1,5.1,0,0,1,.6-1.29,3.69,3.69,0,0,1,1-1,4.59,4.59,0,0,1,1.38-.61,8.14,8.14,0,0,1,4,.08,4.17,4.17,0,0,1,1.65,1l-.95,1.21a3.67,3.67,0,0,0-1.32-.78,5.51,5.51,0,0,0-1.69-.25,5.57,5.57,0,0,0-.87.06,3.11,3.11,0,0,0-.67.18,2.06,2.06,0,0,0-.51.27,2.3,2.3,0,0,0-.41.36,2.05,2.05,0,0,0-.34.51,3.74,3.74,0,0,0-.26.78,7.5,7.5,0,0,0-.17,1.14c0,.44-.05,1-.05,1.6s0,1.24.06,1.7a7.3,7.3,0,0,0,.18,1.16,2.9,2.9,0,0,0,.29.78,1.85,1.85,0,0,0,.37.48,2.38,2.38,0,0,0,.43.34,2.91,2.91,0,0,0,.53.24,3.87,3.87,0,0,0,.68.14,5.67,5.67,0,0,0,.87,0c.21,0,.42,0,.63,0s.43,0,.64-.06a5.4,5.4,0,0,0,.58-.09c.19,0,.5-.07.5-.12V90.11h-2.46V88.47Z"/><path d="M339.43,82.74V95h-1.64V82.74Z"/><path d="M359.1,82.74v1.63h-4.92v4.1h4.92v1.64h-4.92v3.28h4.92V95h-6.56V82.74Z"/><path d="M378,85a3.58,3.58,0,0,0-.66-.37,6.2,6.2,0,0,0-.69-.23,4.28,4.28,0,0,0-.68-.13,4.88,4.88,0,0,0-.64,0,3.88,3.88,0,0,0-.87.09,2,2,0,0,0-.68.29,1.28,1.28,0,0,0-.44.51,1.61,1.61,0,0,0-.16.76,1.64,1.64,0,0,0,.26,1,2.34,2.34,0,0,0,.67.66,4.81,4.81,0,0,0,1,.5l1.09.45a12,12,0,0,1,1.1.5,3.84,3.84,0,0,1,1,.67,3.3,3.3,0,0,1,.68,1,3.34,3.34,0,0,1,.25,1.38,3.53,3.53,0,0,1-.32,1.54,3.17,3.17,0,0,1-.89,1.09,3.87,3.87,0,0,1-1.32.64,6.19,6.19,0,0,1-1.64.21,6.58,6.58,0,0,1-1-.07,7,7,0,0,1-1-.21,5.7,5.7,0,0,1-.92-.37,3.18,3.18,0,0,1-.77-.56l.84-1.22a3.19,3.19,0,0,0,.71.46,4.59,4.59,0,0,0,.77.31,5.44,5.44,0,0,0,.78.17,6.9,6.9,0,0,0,.75,0,4.58,4.58,0,0,0,.83-.08,2,2,0,0,0,.73-.28,1.64,1.64,0,0,0,.53-.55,1.82,1.82,0,0,0,.2-.9,1.93,1.93,0,0,0-.26-1,2.23,2.23,0,0,0-.68-.72,4.87,4.87,0,0,0-1-.53l-1.09-.44c-.38-.15-.74-.32-1.1-.49a4.56,4.56,0,0,1-.95-.65,2.91,2.91,0,0,1-.68-.93,3.09,3.09,0,0,1,1-3.84,4,4,0,0,1,1.29-.6,5.83,5.83,0,0,1,1.5-.2,6,6,0,0,1,.82.06,6.72,6.72,0,0,1,.87.18,5.21,5.21,0,0,1,.83.31,3.83,3.83,0,0,1,.72.46Z"/><path class="cls-1" d="M65.27,89.7c3.82.06,7.64,0,11.44-.2,1.9-.11,3.8-.25,5.68-.44s3.77-.37,5.63-.62a99.62,99.62,0,0,0,11-2.08A57.4,57.4,0,0,0,109,83a22.88,22.88,0,0,0,7.42-5,9.58,9.58,0,0,0,1-1.35c.12-.23.25-.45.35-.66a7.13,7.13,0,0,0,.31-.81,20.05,20.05,0,0,0,1-4.33,10.49,10.49,0,0,0-1.53-7.17A18.78,18.78,0,0,0,111,57.84a43.1,43.1,0,0,0-6-2.73c-.12,1.06-.24,2.12-.39,3.19-.17,1.38-.37,2.77-.59,4.16-.1.69-.22,1.39-.34,2.08s-.23,1.38-.39,2.07c-.3,1.38-.63,2.76-1,4.13-.19.69-.4,1.38-.63,2.06a17.89,17.89,0,0,1-.9,2.1,1,1,0,0,1-1.38.44,1,1,0,0,1-.52-1.15l0-.13a14.44,14.44,0,0,0,.32-1.85c.08-.66.17-1.32.22-2,.13-1.34.2-2.7.25-4.06s.12-2.71.14-4.08,0-2.72,0-4.09,0-2.73,0-4.1c0-.16,0-.32,0-.48a98.14,98.14,0,0,0-9.72-2.22,188.28,188.28,0,0,0-23.21-2.48c-2-.1-3.93-.17-5.91-.25l-6-.19c-3.84-.14-7.68-.4-11.54-.87-21.58,1.16-25.3,3-26.91,6.06C11.74,62.65,40.87,62,41.83,63c3.32.8,2.89,3.32,1.53,5.79-2.13,3.86-5.56,7.34-6.48,11.77a6.18,6.18,0,0,0,2.67,6.61c1,.2,2,.38,3,.55A148.17,148.17,0,0,0,65.27,89.7Z"/><ellipse cx="88.05" cy="76.39" rx="7.92" ry="1.91"/><path d="M99.78,51.27c0-.49,0-1,0-1.48l-.07-4.11c0-1.36,0-2.73-.08-4.1,0-.17,0-.34,0-.51-2.59-.53-5.17-1-7.75-1.31a200,200,0,0,0-24.68-1.58c-2,0-4.08,0-6.11,0l-6,.13c-3.88.06-7.75,0-11.56-.31a69.54,69.54,0,0,1-11.14-1.67,27,27,0,0,1-9.43-4,7.59,7.59,0,0,1-2.51-2.93,4.55,4.55,0,0,1,0-3.3,10.57,10.57,0,0,1,2.4-3.8,22.45,22.45,0,0,1,4-3.36,41.54,41.54,0,0,1,10.05-4.85,63.27,63.27,0,0,1,11.23-2.64,88.49,88.49,0,0,1,11.7-.92c4-.1,7.94-.08,11.89.14a76.85,76.85,0,0,1,11.75,1.46A35.26,35.26,0,0,1,89,13.81a16.56,16.56,0,0,1,2.6,1.29,7.81,7.81,0,0,1,1.15.83,4.42,4.42,0,0,1,.9,1l.75-.31a4.76,4.76,0,0,0-1-1.36,11.66,11.66,0,0,0-1.19-1,19.11,19.11,0,0,0-2.65-1.64,36.66,36.66,0,0,0-5.72-2.28A80.28,80.28,0,0,0,71.93,7.77c-4-.55-8.07-.91-12.11-1.13a90.28,90.28,0,0,0-12.31,0,69.69,69.69,0,0,0-12.33,2,47.68,47.68,0,0,0-11.9,4.78,29.48,29.48,0,0,0-5.43,4,19.05,19.05,0,0,0-2.39,2.71,15.06,15.06,0,0,0-1.91,3.37,13,13,0,0,0-.94,4.1A11.77,11.77,0,0,0,13.2,32a15.23,15.23,0,0,0,4.63,6.56,26.7,26.7,0,0,0,6,3.8A44.84,44.84,0,0,0,30,44.73a79.53,79.53,0,0,0,12.5,2.57l.9.1c3.86.47,7.7.73,11.54.87l6,.19c2,.08,3.95.15,5.91.25a188.28,188.28,0,0,1,23.21,2.48,98.14,98.14,0,0,1,9.72,2.22C99.8,52.7,99.79,52,99.78,51.27Z"/><path d="M132,63.81a23.31,23.31,0,0,0-3.54-7.54A27.09,27.09,0,0,0,123,50.62a37.9,37.9,0,0,0-6.09-3.87,59.62,59.62,0,0,0-11-4.2c-.1,2.47-.21,4.94-.41,7.41-.1,1.1-.18,2.2-.28,3.31,0,.28,0,.57-.07.86s-.07.65-.11,1a43.1,43.1,0,0,1,6,2.73,18.78,18.78,0,0,1,6.69,5.82,10.49,10.49,0,0,1,1.53,7.17,20.05,20.05,0,0,1-1,4.33,7.13,7.13,0,0,1-.31.81c-.1.21-.23.43-.35.66a9.58,9.58,0,0,1-1,1.35A22.88,22.88,0,0,1,109,83,57.4,57.4,0,0,1,99,86.36a99.62,99.62,0,0,1-11,2.08q-2.79.38-5.63.62c-1.88.19-3.78.33-5.68.44-3.8.21-7.62.26-11.44.2a148.17,148.17,0,0,1-22.72-2c-1-.17-2-.35-3-.55a80.77,80.77,0,0,1-18.09-5.68,33,33,0,0,1-8.34-5.33,13.6,13.6,0,0,1-4.38-7.4c-.61-2.93-.08-6.46,1.12-10a65.94,65.94,0,0,1,5.05-10.67l-.61-.55a38.87,38.87,0,0,0-9.23,8.6A28.45,28.45,0,0,0,1.67,62,21.58,21.58,0,0,0,0,69.05a20,20,0,0,0,1.12,7.64,23.11,23.11,0,0,0,3.65,6.68,31.85,31.85,0,0,0,5,5.19,41.54,41.54,0,0,0,5.65,4c7.79,4.61,16.1,7.07,24.36,8.92a121.87,121.87,0,0,0,12.49,2.09q6.27.73,12.56,1c4.19.14,8.39.09,12.6-.1,2.1-.11,4.2-.25,6.31-.44s4.2-.47,6.3-.77C98.52,102,107,100,115.28,96a42.36,42.36,0,0,0,6.16-3.67A30.14,30.14,0,0,0,127.2,87a23.47,23.47,0,0,0,2.41-3.57c.35-.66.68-1.34,1-2a19.79,19.79,0,0,0,.7-2,33.07,33.07,0,0,0,1.4-7.42A25.7,25.7,0,0,0,132,63.81Z"/><path d="M100.2.46l29-.46s-19.82,7-24.11,18.09C104.75,5.48,100.2.46,100.2.46Z"/><path d="M99.41,76.8a1.19,1.19,0,0,1-.52-.11,1.24,1.24,0,0,1-.6-1.63c0-.12,3.19-7.57,3.19-36.64,0-28.87-5.35-35.48-5.41-35.55a1.24,1.24,0,0,1,.12-1.72,1.21,1.21,0,0,1,1.71.08c.25.27,6,7,6,37.19,0,30-3.28,37.37-3.42,37.67A1.22,1.22,0,0,1,99.41,76.8Z"/></g></g></svg>