<svg xmlns="http://www.w3.org/2000/svg" viewBox="0 0 200.92 202.9"><title>yep</title><g id="Layer_2" data-name="Layer 2"><g id="Layer_1-2" data-name="Layer 1"><path d="M133.58,16.64c-2.09,1.19-3.11,1.81-5.07,3.12a72.07,72.07,0,0,1,6.93,2.57C134.78,20.05,134.41,18.91,133.58,16.64Z"/><path d="M70.2,25.74c2.83-1.12,7.64-3.09,6.43-7-1.32-4.31-7-2.48-9.88-1.31s-8.28,3.72-6.11,7.74C62.62,28.8,67.25,26.92,70.2,25.74Z"/><path d="M118,51.36h0l0-.09a2.59,2.59,0,0,0-4.4,2.73l0,.06a15.13,15.13,0,0,1-.09,16,2.59,2.59,0,0,0,.82,3.57,2.64,2.64,0,0,0,1.37.39,2.59,2.59,0,0,0,2.2-1.21A20.42,20.42,0,0,0,121,61.94,20.2,20.2,0,0,0,118,51.36Z"/><path d="M87,50.35a2.59,2.59,0,0,0-3.57.82,20.36,20.36,0,0,0-.11,21.39l.06.1a2.62,2.62,0,0,0,2.16,1.16,2.55,2.55,0,0,0,1.33-.37,2.59,2.59,0,0,0,.89-3.56l-.06-.1a15.15,15.15,0,0,1,.13-15.87A2.59,2.59,0,0,0,87,50.35Z"/><path d="M80.84,74.08A23.23,23.23,0,0,1,81,49.62a2.59,2.59,0,1,0-4.39-2.75,28.39,28.39,0,0,0-.18,29.88l0,.06a2.59,2.59,0,0,0,4.49-2.59Z"/><path d="M124.93,47.14l0,0a2.57,2.57,0,0,0-3.55-.82,2.6,2.6,0,0,0-.84,3.56,23.27,23.27,0,0,1-.14,24.48,2.59,2.59,0,0,0,.82,3.57,2.64,2.64,0,0,0,1.37.39,2.6,2.6,0,0,0,2.2-1.21,28.45,28.45,0,0,0,.17-29.93Z"/><path d="M131.92,42.77a2.59,2.59,0,0,0-4.41,2.71l0,.07a31.47,31.47,0,0,1-.2,33.15,2.59,2.59,0,0,0,4.4,2.75,36.67,36.67,0,0,0,.22-38.6A.56.56,0,0,0,131.92,42.77Z"/><path d="M73.75,78.27a31.48,31.48,0,0,1,.24-33,2.59,2.59,0,0,0-4.39-2.75,36.67,36.67,0,0,0-.21,38.58l.09.15a2.61,2.61,0,0,0,2.13,1.11,2.57,2.57,0,0,0,1.3-.35,2.6,2.6,0,0,0,.94-3.55Z"/><path d="M89.5,154.46H86.18c-3.66,0-5.47,1.8-5.47,5.46v8.45c0,2.9,1.77,4.87,4.75,4.87h.21a8.18,8.18,0,0,0,3.45-.75v5.8a.92.92,0,0,1-1.05,1.05h-.59a.92.92,0,0,1-1-1.05v-3.07H80.76v3.7c0,3.65,1.8,5.46,5.46,5.46H89.5c3.65,0,5.46-1.81,5.46-5.46v-19C95,156.26,93.15,154.46,89.5,154.46Zm-.38,13.45a4.94,4.94,0,0,1-1.55.25c-.85,0-1.06-.3-1.06-1v-6.64a.92.92,0,0,1,1.06-1.05h.5a.92.92,0,0,1,1.05,1.05Z"/><path d="M99.88,155.26a4.25,4.25,0,0,1-3.36,2.05l-.38.05v4.07h2.77v22.7h5.76V154.58h-4.29Z"/><path d="M118.12,168.91c1.55-.58,2.44-1.85,2.44-4.37v-4.62c0-3.66-1.81-5.46-5.47-5.46h-3c-3.66,0-5.47,1.8-5.47,5.46v4.16h5.55v-3.53a.92.92,0,0,1,1-1.05h.46a.92.92,0,0,1,1,1.05v5a.91.91,0,0,1-1,1h-4.37v5.17h4.46a.92.92,0,0,1,1,1v5.47a.92.92,0,0,1-1,1.05h-.63a.92.92,0,0,1-1.05-1.05v-4.08h-5.55v4.71c0,3.65,1.81,5.46,5.46,5.46h3.2c3.65,0,5.46-1.81,5.46-5.46V172.7C120.64,170.55,119.88,169.42,118.12,168.91Z"/><path d="M170.08,149.93a2.11,2.11,0,0,0-3,.39l-.16.22a2.1,2.1,0,1,0,3.32,2.57l.18-.23A2.1,2.1,0,0,0,170.08,149.93Z"/><path d="M34.28,150.37l-.16-.21a2.11,2.11,0,0,0-3.35,2.55l.18.23a2.09,2.09,0,0,0,1.67.82,2.07,2.07,0,0,0,1.28-.44A2.1,2.1,0,0,0,34.28,150.37Z"/><path d="M176.1,140.45a2.1,2.1,0,0,0-2.87.76l-.14.25a2.09,2.09,0,0,0,.76,2.87,2,2,0,0,0,1.05.29,2.12,2.12,0,0,0,1.83-1.05l.14-.24A2.11,2.11,0,0,0,176.1,140.45Z"/><path d="M28.05,141a2.11,2.11,0,0,0-3.65,2.11l.15.24a2.1,2.1,0,1,0,3.64-2.11Z"/><path d="M180.83,130.25a2.11,2.11,0,0,0-2.75,1.15l-.11.24a2.11,2.11,0,0,0,1.13,2.76,2.11,2.11,0,0,0,2.75-1.12L182,133A2.12,2.12,0,0,0,180.83,130.25Z"/><path d="M23.22,131.22a2.1,2.1,0,1,0-3.88,1.61l.11.26a2.09,2.09,0,0,0,1.94,1.3,2.14,2.14,0,0,0,.81-.17,2.1,2.1,0,0,0,1.13-2.75Z"/><path d="M184.17,119.53A2.1,2.1,0,0,0,181.6,121l-.07.26a2.09,2.09,0,0,0,1.47,2.58,2.23,2.23,0,0,0,.56.08,2.12,2.12,0,0,0,2-1.55l.07-.29A2.09,2.09,0,0,0,184.17,119.53Z"/><path d="M19.8,121.11l-.07-.26a2.1,2.1,0,0,0-4.07,1.07l.08.28a2.1,2.1,0,0,0,2,1.56,2.13,2.13,0,0,0,.55-.07A2.11,2.11,0,0,0,19.8,121.11Z"/><path d="M186.08,108.46a2.11,2.11,0,0,0-2.36,1.82l0,.26a2.1,2.1,0,0,0,1.8,2.37l.28,0a2.11,2.11,0,0,0,2.09-1.82l0-.29A2.11,2.11,0,0,0,186.08,108.46Z"/><path d="M17.66,110.37l0-.27a2.1,2.1,0,1,0-4.17.53l0,.29a2.11,2.11,0,0,0,2.09,1.83l.28,0A2.09,2.09,0,0,0,17.66,110.37Z"/><path d="M193,61.35a100.48,100.48,0,0,0-185.1,0A100.53,100.53,0,0,0,61.35,193a101.3,101.3,0,0,0,11.95,4.17l.49,2.1a4.68,4.68,0,0,0,4.57,3.62H123a4.68,4.68,0,0,0,4.57-3.62l.52-2.23a99.84,99.84,0,0,0,43-25.19l.06.07L173,170A100,100,0,0,0,193,139.7l0,0a.3.3,0,0,1,0-.1,100.64,100.64,0,0,0,0-78.22Zm-44.66-27.9c1.37.93,2,1.41,3.37,2.42l4.67-6.2c-1.45-1.1-2.19-1.63-3.68-2.65l2-3a114.15,114.15,0,0,1,13.48,11.15l-2.56,2.58c-1.57-1.57-2.38-2.33-4-3.78l-5.18,5.91a111.92,111.92,0,0,1,8.29,8.44l2.09-1.79c1.78,2.09,2.64,3.18,4.29,5.45l-4.95,3.59A90.48,90.48,0,0,0,146.4,36.32Zm21.36,77.39c-.3,2-.68,4-1.15,5.92h0q-.73,3.13-1.76,6.16l-.27.77c-.11.33-.23.65-.34,1-.21.57-.43,1.13-.65,1.7l0,.06a70.49,70.49,0,0,1-28.85,34l3.4-14.56a4.69,4.69,0,0,0-4.58-5.76h-11.1l1-3.81a4.68,4.68,0,0,0-3.26-5.75h0l-18.49-58.2a10.76,10.76,0,1,0-5.94,0l-18.54,58.2v0A4.68,4.68,0,0,0,76,136.25l1,3.81H65.89a4.68,4.68,0,0,0-4.57,5.76l3.46,14.85a70.26,70.26,0,0,1-32.41-43.91H77l1.68-4.39v-7c.73.4,1.48.8,2.23,1.18l1.41-3.69a129,129,0,0,1-20.9-14.07l-1.68-1.43-1.23,1.84c-.09.12-8.32,12.17-27.34,21.7A70,70,0,1,1,170.25,95l.11,2.63c0,1,.07,2,.07,3a70.91,70.91,0,0,1-.75,10.23ZM88.58,118l1.4-4.4,8.11,8.1v5.81Zm4.94,12.28H84.67l2.14-6.72Zm-1.77-22.24,1.48-4.67,4.86,4.85v6.16ZM95,97.85l3.09-9.68v12.76Zm8.27,3.05V88.2l3.06,9.64Zm4.83,2.5,1.48,4.67-6.31,6.31v-6.16Zm-7.42-35.87A5.57,5.57,0,1,1,106.25,62,5.57,5.57,0,0,1,100.68,67.53Zm2.59,54.18,8.08-8.08,1.4,4.41-9.48,9.48Zm11.25,1.89,2.13,6.72H107.8ZM36,112.83c1.84-1,3.58-2,5.21-3v3Zm9.14,0v-5.65q.93-.65,1.8-1.29v6.94Zm5.72,0v-10c.68-.57,1.33-1.12,1.94-1.66v11.67Zm5.87,0V97.42c.7-.73,1.31-1.39,1.86-2v17.42Zm5.79,0V94.64c.53.41,1.12.85,1.75,1.32v16.87Zm5.67,0v-14l1.35.92v13.12Zm5.28,0V102.26l1.35.83v9.74Zm42.22-92.52c1.54.26,2.31.41,3.84.75a109.13,109.13,0,0,1,12.4-8.49c2.77.93,4.14,1.45,6.84,2.6a112.19,112.19,0,0,1,3.77,14.66c1.41.79,2.11,1.21,3.48,2.08l-1.85,2.94a100.34,100.34,0,0,0-13-6.61c.48-1.22.72-1.82,1.21-3,1.74.69,2.61,1.06,4.31,1.86-.15-.7-.24-1-.41-1.75A84.94,84.94,0,0,0,126,21.49c-.57.42-.86.63-1.42,1.06,1.41.4,2.11.62,3.51,1.09L127,26.74a109,109,0,0,0-12-3C115.31,22.36,115.42,21.68,115.66,20.31ZM100.05,7.38c4.8,0,9.82.33,14.36,2.15-.27,1.94-.41,2.92-.68,4.86-2.61-.36-3.92-.49-6.55-.66.06-1,.09-1.45.16-2.42a32.84,32.84,0,0,0-7.29-.64c-3.15,0-8.07.69-7.62,4.89.43,3.93,4.6,4.24,7.8,4.14,4-.12,5.88-.1,6.58-.18.07-1.15.11-1.73.18-2.88,2.54.16,3.81.29,6.34.63-.29,2.06-.43,3.09-.72,5.15-4.08.54-8.31.33-12.38.41-5.69.12-13.08.78-14.4-6.3C84.33,8.48,94.22,7.32,100.05,7.38ZM65.52,14.23c5.08-2.09,16-5.46,17.59,2.79,1.37,7.18-6.41,9.58-11.73,11.74s-12.56,6-16.64-.18C50,21.42,60.36,16.34,65.52,14.23ZM33.41,36.51l-1.84-1.84h0l1.84,1.84q1.58-1.66,3.22-3.27l2.49,2.66c-1.33,1.24-2.1,2-3.18,3.13l-.76.8,5.7,5.41a97.91,97.91,0,0,1,8.61-7.94l-1.71-2.15c2.06-1.65,3.12-2.43,5.27-3.89,1.38,2,2.07,3,3.44,5.07A90.21,90.21,0,0,0,36.71,55.56l-2.81-2C35,52.08,35.48,51.38,36.59,50l-6-4.88c-1.2,1.49-1.79,2.26-2.94,3.83l-2.94-2.14A116.76,116.76,0,0,1,33.41,36.51Zm-20.73,101a94.32,94.32,0,0,1-7.44-34H25.32A74.8,74.8,0,0,0,44.4,150.51L30.16,164.76A94.71,94.71,0,0,1,12.68,137.55Zm50.68,50.69a95,95,0,0,1-30.27-20.41l0,0,14.23-14.23a75.77,75.77,0,0,0,19.08,13.89L72,191.39Q67.6,190,63.36,188.24Zm59.25,9.48H78.75L66.5,145.24H80.39A2.59,2.59,0,0,0,82.88,142l-1.76-6.46H98.7l.15.14.14-.14h3.34l.14.14.15-.14h17.62L118.47,142a2.59,2.59,0,0,0,2.5,3.28h13.88Zm14.94-9.48c-2.67,1.13-5.37,2.12-8.11,3l5.61-24A76,76,0,0,0,153.22,154l14.22,14.22A95,95,0,0,1,137.55,188.24Zm50.64-50.59c-.57,1.35-1.17,2.69-1.81,4-.07.16-.16.31-.23.47-.59,1.2-1.19,2.39-1.82,3.56l-.25.46c-.66,1.2-1.34,2.38-2,3.55l-.15.25A94.28,94.28,0,0,1,171,164.46l-14.18-14.18a75.07,75.07,0,0,0,13.79-22.79c.1-.28.2-.56.31-.84s.29-.78.42-1.17q.33-.93.63-1.86h0a74.79,74.79,0,0,0,3.6-20.06h20A94.47,94.47,0,0,1,188.19,137.65Z"/><path d="M142.46,89.18l-1.22-1.84-1.69,1.43a129.22,129.22,0,0,1-20.85,14l1.41,3.68c.73-.37,1.46-.76,2.18-1.15v6.86l1.74,4.56h44.51q.69-2.94,1.14-5.94C150.73,101.3,142.54,89.3,142.46,89.18Zm-14.89,23.65h-1.35v-9.74l1.35-.83Zm5.27,0h-1.35V99.71l1.35-.93Zm5.68,0h-1.75V96l1.75-1.32Zm5.79,0h-1.87V95.41c.56.62,1.17,1.28,1.87,2Zm15.52-3c1.63,1,3.36,2,5.21,3h-5.21Zm-5.73-3.9q.87.64,1.8,1.29v5.65h-1.8Zm-5.86-4.73c.61.54,1.25,1.09,1.93,1.66v10h-1.93Z"/></g></g></svg>