<svg xmlns="http://www.w3.org/2000/svg" viewBox="0 0 657.8 187.73">
  <path fill="#FFF" d="M12.6 4.05h37.69v2.21C41 6.14 38.38 9 38.38 16.94v45.42c0 17.43-8.72 27.87-22.59 27.87-8.22 0-14-3.93-14-9.21a6.11 6.11 0 016.14-6.26c7.48 0 7.24 11 12.76 11 3.32 0 4.42-3.44 4.42-12.89V16.69c0-7.36-2.7-10.55-12.52-10.43zM103 80.77c-6.14 6.88-9.45 9.33-13.87 9.33-4.67 0-8.47-3.8-7.86-10.43-7.54 7.24-13.8 10.43-20.18 10.43-7.09 0-12.65-6.1-12.65-13.87a14.78 14.78 0 013.44-9.82c2.33-3.07 6.63-5.4 12.89-8.35a146.2 146.2 0 0116.45-6.75V46c0-10.06-3.07-13.38-11-13.38-6.63 0-9.45 3.81-9.45 9 0 .62.12 2.21.12 3a4.7 4.7 0 01-4.78 5 4.92 4.92 0 01-5.28-5.15c0-8.6 8.84-14.36 22.09-14.36 12.53 0 18.42 4.78 18.42 15.09V77c0 4.17 1 5.77 3.56 5.77s4.78-1.48 8.1-5zM81.22 54.63C63.91 61.75 58.88 65.92 58.88 73c0 5.65 4 10.07 9.21 10.07 4.17 0 8.22-1.85 13.13-6.14z"/>
  <path fill="#FFF" d="M106 38.05a12 12 0 00-2.09.13 6 6 0 00-1.59.49l-.86-2.09 18.41-6.5H122v11.66c8.34-9.21 14.48-11.66 19.15-11.66 7.48 0 12.39 4.17 14.24 12.39 5.89-7.85 12.4-12.39 20.37-12.39 9.09 0 15 6.87 15 19.39v25.29c0 9.7 2.21 11.42 9.33 11.42v2.2h-29v-2.2c7.12 0 9.57-1.23 9.57-11.42V48.24c0-6.75-3.92-10.8-9.82-10.8-5 0-11 3-14.85 7.61.12.86.37 6 .37 7.61v22.1c0 9.57 2.21 11.42 9.33 11.42v2.2h-29.1v-2.2c7.62 0 9.7-1.6 9.7-11.42V49.23c0-6.51-3.56-11.79-9.82-11.79-4.54 0-9.94 2.82-14.48 7.49v29.83c0 9.08 2.33 11.66 9.08 11.42v2.2h-28.73v-2.2c7.48 0 9.57-1.72 9.57-11.42V46.52c0-5.27-2.09-8.47-5.91-8.47zM246 68.38c-2.7 13.5-11.42 21.72-22.83 21.72-12.28 0-24.06-9.57-24.06-29.34 0-18.41 10.19-30.68 25.41-30.68 12.77 0 21.48 9.32 21.48 23h-38.58c-.74 13.63 7.73 27.38 20.37 27.38 7.74 0 13.26-4.42 16.33-13zm-12.68-19.15c-.37-9.33-4.91-14.86-12.16-14.86s-12.64 6-13.5 14.86zM268.3 30.08a23.52 23.52 0 016.51 1 14.92 14.92 0 004.91 1.1 4.44 4.44 0 002.33-.73h2.21v17.3h-2.21c-1.35-9.08-6.87-15.22-14-15.22-5.41 0-9.82 3.19-9.82 7.24a9 9 0 002.45 6.39c6.38 6.38 16 7.73 23 14.73a15.29 15.29 0 014.78 11.29c0 12.4-12 16.94-18.29 16.94-5.89 0-11.66-2.57-13.75-2.57a2.85 2.85 0 00-2.21.85h-2.57V69.23h2.08c1.23 10.07 7.86 17.07 16.58 17.07 5 0 9.45-3.81 9.45-8.35 0-3.44-.86-5.28-3.44-7.86-4.3-4.29-16.2-9.2-21.24-14.24-2.7-2.7-3.8-5.15-3.8-9.57-.03-9.28 7.21-16.2 17.03-16.2zM394.62 77.21c3.44 7.86 6 9 11.78 9v2.2h-34.62v-2.2h.13c5.52 0 8.71-2.09 8.71-5.9a13.57 13.57 0 00-1.62-5.8L372.64 60h-34l-7.49 17.18a8.61 8.61 0 00-.73 3.32c0 3.68 3.19 5.65 9.08 5.65v2.2h-24.31v-2.2c5.28-.74 7.49-3.07 11.42-11.91L359 .37h2.21zm-53.89-21.85h29.95l-15-34.25zM451.7 67.15C448.26 81 438.81 90.1 427.76 90.1c-14.61 0-25.16-12.39-25.16-29.46 0-17.8 11.66-30.56 28-30.56 10.31 0 19.64 6.38 19.64 13.38 0 2.82-2.46 4.78-5.9 4.78a7.66 7.66 0 01-5.15-2c-2.09-2.09-.49-6.75-3.81-10.07-1.59-1.59-3.68-2.45-6.87-2.45-9.7 0-16.08 8.47-16.08 21.11 0 15.22 7.85 25.29 19.76 25.29 8.59 0 14.85-5 17.56-13.87z"/>
  <path fill="#FFF" d="M453.91 8.72h-1.35a10.78 10.78 0 00-1.6.49l-.73-2.09 17.3-6.75h2.09v56.1l17.56-16.7c1.59-1.47 2.21-2.45 2.21-3.56 0-1.59-1.6-2.57-4.55-2.57v-2.21H510v2.21c-8.23-.25-12.77 2.57-18.66 8.1L479.2 53.28l15.34 19.88c8.47 10.93 12 13 18.05 13v2.2h-27.38v-2.2c2.58-.13 3.93-.86 3.93-2.34 0-1.22-.61-2.58-2-4.29l-17.27-22.45h-.25v17.68c0 9.7 2.46 11.42 9.58 11.42v2.2h-29v-2.2c6.87 0 9.33-1.48 9.33-11.42V16.57c.03-5.4-1.69-7.85-5.62-7.85zM518.11 9.21a6.08 6.08 0 00-1.47.12 5 5 0 00-1.48.49l-.73-2.09L531.61.37h2.21v74.51c0 8.72 1.84 11.3 8.23 11.3v2.2h-27.62v-2.2c7.12 0 9.33-2 9.33-11.3v-57c0-5.97-1.85-8.67-5.65-8.67zM547.45 38.18a4.71 4.71 0 00-1.35.12 3.26 3.26 0 00-1.23.49l-.74-2.21 17.07-6.5h2.21v44.68c0 8.59 1.84 11.17 8.34 11.42v2.2h-27.62v-2.2h.13c6.87 0 9.08-2.71 9.08-11.42V46c0-4.63-1.84-7.82-5.89-7.82zM558 0a6.32 6.32 0 11-6.26 6.26A6.32 6.32 0 01558 0zM577.89 38.18a8.84 8.84 0 00-1.84.12c-.61.25-1.23.49-2.09.86l-.86-2.33 17.68-6.75h2.09v12c8.47-9.21 13-12 19.39-12 10.07 0 15 8.71 15 18.65v26c0 8.71 2 11.17 8.71 11.42v2.2h-28.74v-2.2c8.59.12 9.94-3.2 9.94-11.42V48c0-5.65-3.8-10.68-9.69-10.68-4.92 0-9.33 2.45-14.61 8.22v29.22c0 8.84 2.08 11.29 9.33 11.42v2.2H574v-2.2c8.35-.62 8.84-3.93 8.84-11.42V45.54c-.04-3.8-1.39-7.36-4.95-7.36zM639.76 106.55c9.7-3.31 13.38-10.19 13.38-15.83 0-1.35-.74-2.46-1.84-2.46a7.87 7.87 0 00-2 .86 5.35 5.35 0 01-3.07 1 6.54 6.54 0 01-6.5-6.5c0-4.18 3.43-7.37 7.85-7.37 5.77 0 9.95 5.28 9.95 12.4 0 9.45-5.77 16-17.8 20.25zM39.72 162.5c-4.47 5-6.89 6.8-10.11 6.8-3.4 0-6.17-2.77-5.72-7.61-5.46 5.28-10 7.61-14.68 7.61C4 169.3 0 164.83 0 159.19A10.82 10.82 0 012.5 152c1.7-2.23 4.84-3.93 9.4-6.08a104.11 104.11 0 0112-4.92v-3.85c0-7.33-2.24-9.75-8.06-9.75C11 127.43 9 130.2 9 134c0 .45.09 1.61.09 2.15a3.44 3.44 0 01-3.49 3.67A3.6 3.6 0 011.7 136c0-6.26 6.44-10.47 16.1-10.47 9.13 0 13.42 3.49 13.42 11v23.17c0 3 .72 4.2 2.6 4.2s3.49-1.07 5.9-3.67zm-15.83-19.06c-12.62 5.19-16.29 8.23-16.29 13.42 0 4.12 3 7.34 6.71 7.34 3 0 6-1.34 9.58-4.47zM81.86 122.42c10.2 0 17.44 6.17 18.34 15.66h-8.5c-.81-5-4.47-8.5-9.48-8.5h-.72c-8.41 0-12.61 7.33-12.61 16.1s4.2 16.1 12.61 16.1h.72c5 0 8.67-3.49 9.48-8.5h8.5c-.9 9.49-8.14 15.66-18.34 15.66-13.51 0-21.47-10-21.47-23.26s7.96-23.26 21.47-23.26zM125.87 122.42c12.08 0 21.47 9.57 21.47 23.26s-9.39 23.26-21.47 23.26-21.47-9.57-21.47-23.26 9.4-23.26 21.47-23.26zm.36 39.36c7.34 0 12.61-5.9 12.61-16.1s-5.27-16.1-12.61-16.1h-.72c-7.33 0-12.61 5.9-12.61 16.1s5.28 16.1 12.61 16.1zM171.85 122.42c6.09 0 11.63 3 13.87 7.16v-24.16h8.5v62.63h-8.5v-6.27c-2.15 4-8.68 7.16-14.76 7.16-11.27 0-19.23-8.68-19.23-23.26s8.76-23.26 20.12-23.26zm1.26 39.36c6.53 0 12.61-5.63 12.61-16.1s-6.08-16.1-12.61-16.1h-.72c-6.89 0-12.16 5.63-12.16 16.1s5.27 16.1 12.16 16.1zM203.7 105.42h9.4v9.84h-9.4zm.45 17.89h8.5v44.74h-8.5zM222.49 123.31H231v6.27c2.95-4.39 7.51-7.16 14.31-7.16 10.11 0 16.1 6.26 16.1 15.66v30h-8.49v-28.21c0-6.54-3-10.29-9-10.29h-.72c-6.44 0-12.16 5.1-12.16 13.42v25.05h-8.5zM275.9 173.86c.8 4.38 5.45 6.71 11.81 6.71h.89c8 0 13-4.38 13-13.42v-6.26a15.52 15.52 0 01-13.42 7.16c-10.73 0-19.86-7.61-19.86-22.82s8.95-22.81 19.86-22.81c6.44 0 11.63 3.49 13.42 7.16v-6.27h8.5v44.74c0 11.27-8.23 19.68-21.92 19.68-12.25 0-19.86-5.73-20.75-13.87zm13.33-13c6.35 0 12.34-6.17 12.34-15.66 0-9.66-5.63-15.65-11.9-15.65H289c-6.62 0-12.17 4.92-12.17 15.65s5.19 15.66 11.72 15.66zM355.78 122.42c6.09 0 11.63 3 13.87 7.16v-24.16h8.5v62.63h-8.5v-6.27c-2.15 4-8.68 7.16-14.76 7.16-11.27 0-19.24-8.68-19.24-23.26s8.77-23.26 20.13-23.26zm1.22 39.36c6.53 0 12.61-5.63 12.61-16.1s-6.08-16.1-12.61-16.1h-.72c-6.89 0-12.17 5.63-12.17 16.1s5.28 16.1 12.17 16.1zM406.24 122.42c11.54 0 19 8 19 19.68v4.9h-31.35c.54 9.84 6.8 14.76 12.53 14.76h.71c4.66 0 8.68-2.41 9.49-7h8.5c-1.61 8.85-9.31 14.13-18.61 14.13-11.54 0-21.12-8.14-21.12-23.35 0-14.89 9.93-23.12 20.85-23.12zm10.47 17.89c-.36-7.24-4.48-10.73-10.11-10.73h-.72c-5.28 0-9.93 3.31-11.45 10.73zM437.46 154.18c.45 4.92 4.47 7.6 9.93 7.6h.72c4.74 0 8.32-2.23 8.32-5.81 0-2.95-1.7-4.92-6.09-5.73l-6.53-1.24c-7.87-1.52-13.06-5.64-13.06-12.79 0-8.68 7.78-13.78 16.91-13.78 11.54 0 17.71 6.08 17.71 14.76h-8.5c-.44-4.29-3.66-7.6-8.76-7.6h-.72c-4.92 0-8.14 2.5-8.14 5.72 0 2.95 2.06 4.92 6.26 5.73l7.07 1.43c7.51 1.52 12.35 5.55 12.35 13.06 0 8-7.25 13.42-17.63 13.42-11.72 0-17.8-6.08-18.34-14.76zM472.08 105.42h9.4v9.84h-9.4zm.45 17.89H481v44.74h-8.5zM495.88 173.86c.8 4.38 5.45 6.71 11.81 6.71h.89c8 0 13-4.38 13-13.42v-6.26a15.52 15.52 0 01-13.42 7.16c-10.73 0-19.86-7.61-19.86-22.82s9-22.81 19.86-22.81c6.44 0 11.63 3.49 13.42 7.16v-6.27h8.5v44.74c0 11.27-8.23 19.68-21.92 19.68-12.25 0-19.86-5.73-20.75-13.87zm13.33-13c6.35 0 12.34-6.17 12.34-15.66 0-9.66-5.63-15.65-11.9-15.65h-.71c-6.62 0-12.17 4.92-12.17 15.65s5.19 15.66 11.72 15.66zM540 123.31h8.5v6.27c2.95-4.39 7.52-7.16 14.31-7.16 10.11 0 16.11 6.26 16.11 15.66v30h-8.5v-28.21c0-6.54-2.95-10.29-9-10.29h-.71c-6.44 0-12.17 5.1-12.17 13.42v25.05H540zM606.54 122.42c11.54 0 19 8 19 19.68v4.9h-31.35c.54 9.84 6.8 14.76 12.53 14.76h.71c4.66 0 8.68-2.41 9.49-7h8.5c-1.61 8.85-9.31 14.13-18.61 14.13-11.54 0-21.12-8.14-21.12-23.35 0-14.89 9.94-23.12 20.85-23.12zM617 140.31c-.36-7.24-4.48-10.73-10.11-10.73h-.72c-5.28 0-9.93 3.31-11.45 10.73zM632.75 123.31h8v9.85c1.88-6.62 7-10.29 13-10.29h4v8.23h-3.58c-8 0-13 5.37-13 14.31v22.64h-8.5z"/>
</svg>
