<?xml version="1.0" standalone="no"?>
<!DOCTYPE svg PUBLIC "-//W3C//DTD SVG 20010904//EN"
 "http://www.w3.org/TR/2001/REC-SVG-20010904/DTD/svg10.dtd">
<svg version="1.0" xmlns="http://www.w3.org/2000/svg"
 width="620.000000pt" height="620.000000pt" viewBox="0 0 620.000000 620.000000"
 preserveAspectRatio="xMidYMid meet">
<metadata>
Created by potrace 1.11, written by Peter Selinger 2001-2013
</metadata>
<g transform="translate(0.000000,620.000000) scale(0.100000,-0.100000)"
fill="#000000" stroke="none">
<path d="M2194 5820 c-49 -3 -95 -9 -100 -13 -6 -3 -39 -9 -75 -13 -35 -3 -68
-11 -74 -18 -5 -7 -35 -21 -65 -30 -234 -78 -428 -178 -494 -257 -32 -38 -70
-109 -62 -116 3 -3 10 6 16 21 5 15 14 24 20 21 5 -3 12 7 16 22 8 35 33 65
47 56 6 -3 7 -1 3 5 -4 7 -1 12 8 12 8 0 16 5 18 12 2 6 14 13 27 15 22 3 22
3 4 -22 -10 -13 -23 -25 -29 -25 -6 0 -28 -21 -50 -47 -21 -26 -56 -64 -76
-85 -21 -20 -38 -41 -38 -46 0 -4 -6 -14 -12 -20 -7 -7 -13 -26 -14 -42 -1
-16 -11 -48 -22 -72 -11 -24 -27 -59 -36 -78 -49 -109 -97 -400 -66 -400 13 0
5 -171 -13 -272 l-14 -78 26 6 26 5 -23 -20 c-23 -20 -23 -25 -17 -103 6 -75
4 -90 -20 -158 -15 -41 -34 -85 -43 -98 -8 -12 -12 -25 -9 -28 3 -3 23 29 45
72 32 63 40 73 40 50 -1 -31 -51 -150 -68 -161 -5 -3 -15 -15 -21 -26 -9 -18
-8 -19 8 -10 39 22 104 98 97 115 -5 12 -2 15 12 9 11 -4 15 -3 10 5 -3 6 -2
13 4 17 6 4 7 11 4 17 -4 6 -2 8 4 4 6 -3 10 -19 8 -34 -1 -15 1 -35 6 -44 5
-11 4 -26 -2 -38 -14 -26 -30 -17 -23 13 2 12 -9 -6 -26 -41 -36 -73 -39 -92
-11 -67 11 10 20 14 20 9 -1 -18 -36 -53 -83 -82 -27 -17 -42 -32 -35 -35 7
-2 -6 -10 -29 -16 -52 -14 -57 -26 -8 -18 21 3 33 2 30 -4 -9 -13 -3 -12 49
11 25 10 46 17 46 14 0 -13 -89 -113 -117 -133 -18 -11 -32 -24 -31 -29 1 -4
-15 -24 -36 -46 -58 -60 -48 -71 59 -70 76 1 99 5 144 27 30 15 57 25 59 22 3
-2 -23 -34 -57 -71 -68 -72 -81 -97 -74 -136 4 -21 12 -26 48 -31 23 -4 69 -2
101 3 97 16 91 20 86 -68 -4 -66 -2 -80 14 -92 11 -9 15 -10 10 -2 -4 6 -2 12
3 12 6 0 11 -6 11 -14 0 -8 14 -22 30 -30 17 -9 44 -23 60 -32 17 -8 36 -14
43 -11 7 3 4 8 -8 12 -35 14 -63 45 -58 66 3 10 10 19 15 19 5 0 7 -3 5 -7 -5
-8 12 -11 91 -16 44 -2 81 -38 82 -79 0 -16 4 -28 10 -28 6 0 8 16 4 38 -5 36
-5 37 11 14 10 -13 14 -30 10 -43 -4 -12 1 -41 10 -66 14 -36 15 -49 5 -67
-10 -19 -8 -29 9 -58 11 -20 17 -39 13 -44 -4 -4 -2 -4 4 -1 7 4 17 0 24 -8 9
-10 9 -15 1 -15 -6 0 -11 -5 -11 -11 0 -6 7 -9 15 -5 9 3 15 -1 15 -11 0 -13
3 -13 15 -3 13 11 15 10 13 -6 -4 -33 14 -94 27 -94 6 0 20 -16 31 -36 15 -29
16 -38 6 -41 -10 -4 -9 -9 4 -24 9 -10 23 -19 29 -19 7 0 20 -11 29 -25 13
-20 14 -29 5 -44 -10 -16 -8 -23 15 -46 15 -15 33 -24 40 -22 23 9 27 -5 9
-25 -26 -29 -26 -50 0 -42 12 3 26 10 31 15 6 5 20 0 35 -14 19 -17 23 -18 18
-4 -7 20 3 22 22 5 11 -10 13 -10 7 0 -5 9 3 12 31 11 28 0 33 -2 19 -8 -18
-7 -18 -8 5 -24 13 -9 27 -17 31 -17 13 0 9 28 -4 33 -7 3 -2 6 11 6 25 1 66
-36 74 -66 3 -13 5 -12 6 6 1 20 3 21 16 11 8 -7 25 -10 40 -6 18 5 27 2 31
-9 6 -14 9 -14 26 2 19 17 20 17 37 -6 10 -13 23 -21 29 -17 6 3 13 2 17 -4 3
-5 -3 -10 -15 -10 -12 0 -19 -4 -16 -8 3 -5 24 -7 48 -6 39 2 41 1 23 -12 -10
-8 -35 -14 -54 -14 -20 0 -47 -3 -61 -5 -21 -5 -22 -4 -5 3 17 8 16 10 -13 14
-23 3 -31 1 -28 -8 4 -11 -18 -10 -54 4 -8 3 -24 6 -35 6 -13 1 -19 7 -17 18
4 25 -16 31 -23 7 -6 -17 -9 -18 -16 -8 -5 8 -3 16 4 21 8 5 3 8 -11 8 -14 0
-21 -4 -16 -11 4 -8 0 -8 -15 0 -14 8 -21 8 -21 1 0 -5 -5 -10 -11 -10 -5 0
-8 3 -6 7 3 5 -11 9 -30 10 -19 1 -41 8 -50 15 -9 7 -21 13 -27 14 -6 0 -17 2
-23 2 -7 1 -13 9 -13 17 0 18 -16 20 -23 3 -4 -10 -6 -10 -6 0 -1 9 -6 10 -20
3 -14 -8 -22 -7 -32 6 -12 15 -12 16 6 9 12 -4 16 -4 10 2 -5 5 -37 14 -70 20
-33 6 -70 13 -81 16 -21 4 -64 25 -74 36 -3 3 -36 25 -73 49 -37 24 -90 66
-118 92 -62 62 -64 86 -7 147 23 25 37 47 31 49 -6 2 -51 -3 -99 -11 -76 -14
-99 -23 -159 -63 -38 -26 -92 -68 -120 -94 -51 -49 -191 -140 -382 -250 -59
-34 -171 -104 -248 -154 -165 -108 -202 -128 -275 -150 -30 -9 -90 -35 -132
-57 l-78 -40 0 -929 0 -929 2990 0 c2021 0 2990 3 2990 10 0 17 -100 191 -143
250 -23 30 -81 96 -131 145 -78 79 -96 103 -137 190 -30 63 -53 131 -63 182
-14 77 -48 167 -67 178 -4 3 -10 -9 -13 -27 -21 -138 -27 -167 -38 -191 -7
-14 -17 -26 -23 -25 -20 3 -64 -14 -69 -27 -3 -9 3 -12 20 -10 29 3 32 -11 4
-20 -11 -4 -17 -11 -14 -17 4 -6 3 -8 -3 -5 -5 3 -22 -5 -38 -19 -15 -13 -34
-24 -42 -24 -7 0 -13 -4 -13 -8 0 -9 -51 -32 -95 -43 -116 -29 -147 -37 -152
-42 -3 -4 -18 2 -33 13 -16 11 -35 17 -44 14 -11 -4 -16 0 -16 12 0 13 -3 15
-11 7 -8 -8 -18 -7 -37 3 -14 7 -30 11 -34 8 -5 -3 -18 2 -28 11 -17 16 -21
16 -42 1 -21 -15 -58 -23 -45 -10 3 4 0 16 -8 28 -20 28 -19 60 2 78 25 20 70
38 85 34 7 -3 29 14 48 36 33 39 34 41 10 33 -24 -7 -24 -7 -8 11 9 11 20 33
23 49 l7 30 -23 -34 c-58 -81 -63 -85 -90 -69 -13 8 -34 14 -46 13 -13 -1 -23
2 -23 7 0 6 -10 18 -22 29 -17 14 -20 21 -10 27 9 6 2 17 -24 40 -20 18 -43
32 -51 32 -8 0 -12 4 -9 9 3 5 -1 14 -9 21 -7 6 -12 17 -9 23 5 15 -70 49 -90
41 -8 -3 -17 -1 -20 5 -4 6 5 13 19 17 26 6 35 22 13 21 -42 -1 -50 3 -46 27
4 17 1 23 -9 19 -21 -8 -15 15 7 27 29 16 25 32 -7 24 -21 -6 -25 -4 -20 8 4
12 -3 18 -26 22 l-32 7 49 45 c28 24 55 44 62 44 6 0 33 26 60 58 45 54 30 48
-26 -9 -45 -47 -122 -88 -152 -82 -16 3 -28 12 -28 19 0 8 -5 13 -11 11 -5 -1
-21 17 -33 40 -13 24 -39 62 -59 85 -46 54 -54 95 -28 153 11 26 18 58 15 77
-2 18 3 78 11 132 8 55 15 140 15 190 0 93 9 124 29 111 9 -5 7 -11 -6 -21
-17 -14 -17 -15 4 -9 16 4 23 1 28 -15 3 -11 11 -20 17 -20 5 0 8 3 6 8 -30
57 -48 109 -58 164 -10 58 -10 71 4 99 9 18 16 38 16 46 0 8 4 12 9 8 5 -3 12
-1 16 5 3 5 1 10 -5 10 -6 0 -8 5 -5 10 3 6 -3 10 -13 10 -20 0 -32 25 -32 68
0 12 -5 22 -12 22 -6 0 -8 3 -5 7 4 3 2 12 -3 18 -6 7 -11 24 -12 38 -1 15 -8
29 -14 31 -21 8 -43 69 -40 111 3 44 -11 85 -29 85 -15 0 -35 58 -35 102 0 19
-7 49 -16 67 -9 19 -13 39 -8 49 4 9 6 23 5 30 -1 6 3 12 8 12 6 0 0 11 -13
24 -15 17 -23 39 -25 73 -1 26 -6 52 -11 58 -4 5 -10 24 -13 40 -3 20 -4 13
-5 -20 -1 -27 5 -84 13 -125 8 -41 22 -127 31 -190 9 -63 27 -153 39 -200 39
-140 86 -343 81 -348 -3 -2 -24 11 -48 30 -62 50 -87 56 -243 61 -154 6 -231
24 -315 76 -25 16 -57 32 -71 36 -28 9 -67 35 -111 75 -17 16 -53 40 -82 56
-28 15 -72 42 -97 61 -42 29 -107 63 -125 63 -9 0 6 -101 22 -138 34 -83 56
-282 35 -321 -14 -25 -110 -96 -151 -110 -19 -7 -45 -18 -57 -23 -12 -6 -31
-8 -42 -5 -12 3 -21 1 -21 -5 0 -10 -99 -6 -118 6 -6 3 -13 2 -17 -4 -9 -14
-71 -12 -83 3 -15 18 2 41 26 35 14 -4 19 -2 16 7 -3 7 5 15 20 19 27 7 34 20
16 31 -15 9 -2 25 20 25 10 0 22 5 25 10 4 6 1 9 -7 8 -9 -2 -12 6 -10 27 3
22 23 48 80 102 42 40 73 75 69 80 -5 4 -11 3 -15 -3 -9 -14 -47 -34 -63 -34
-6 0 6 16 27 35 21 19 34 35 29 35 -5 0 5 15 22 33 17 18 30 41 28 54 -1 14 3
19 12 16 8 -3 11 0 8 9 -3 8 44 66 120 146 116 123 271 333 260 352 -2 4 6 12
18 19 25 14 67 81 67 109 0 22 30 52 51 52 12 0 11 2 -1 10 -28 18 -37 10 -65
-60 -20 -50 -31 -67 -38 -58 -6 9 -7 8 -3 -4 5 -17 -27 -58 -46 -58 -4 0 -5
-7 -2 -15 4 -9 0 -15 -8 -15 -9 0 -14 -9 -14 -22 1 -14 -5 -23 -14 -23 -9 0
-14 -8 -12 -18 2 -11 -2 -15 -12 -11 -8 3 -12 12 -9 20 3 9 -1 14 -12 14 -9 0
-13 -4 -10 -10 9 -15 -4 -12 -21 4 -8 8 -14 30 -14 49 0 23 -8 43 -26 62 -24
26 -25 28 -7 49 10 11 19 23 20 25 1 2 9 -2 18 -9 10 -8 15 -9 15 -1 0 6 -4
11 -10 11 -5 0 -10 5 -10 10 0 6 7 10 15 10 9 0 18 7 21 15 4 8 9 13 13 11 4
-3 13 0 21 6 12 8 12 9 -2 4 -10 -3 -20 -1 -23 4 -4 6 8 10 25 10 18 0 33 6
37 16 3 8 12 13 19 10 8 -3 15 0 15 7 2 15 3 23 13 70 5 23 4 42 -2 50 -6 7
-12 25 -14 40 -3 16 -11 33 -19 38 -10 8 -7 9 11 4 24 -6 24 -5 6 9 -17 14
-21 14 -36 1 -21 -19 -36 -19 -43 -1 -4 10 0 12 14 9 10 -3 19 0 19 6 0 6 -4
11 -10 11 -5 0 -10 7 -10 15 0 11 -8 9 -35 -8 -19 -12 -32 -28 -30 -34 6 -17
-3 -16 -19 0 -7 7 -11 17 -9 23 2 7 -15 14 -42 18 -25 4 -49 14 -51 21 -3 8
-12 11 -20 8 -9 -3 -12 0 -9 8 6 16 155 23 155 8 0 -5 5 -9 11 -9 6 0 9 6 6
14 -3 8 1 17 10 21 12 4 13 9 6 16 -8 8 9 21 55 45 37 19 77 45 90 57 35 32
79 98 98 148 24 63 32 67 23 12 -4 -26 -8 -64 -8 -83 l0 -35 16 30 c9 17 20
46 24 65 l7 35 0 -40 c1 -22 -5 -51 -13 -65 -17 -30 -19 -50 -5 -50 6 0 10 6
10 14 0 8 5 18 11 22 8 4 9 -1 5 -17 -7 -24 -7 -24 9 -4 9 11 21 19 26 17 5
-1 9 4 9 12 0 8 7 22 16 30 19 20 94 178 94 200 0 9 6 15 12 14 8 -2 13 11 15
36 1 21 7 44 14 52 15 19 6 73 -26 153 -14 34 -25 70 -24 79 1 10 -4 37 -11
62 -15 51 -23 230 -10 230 4 0 10 18 12 40 2 22 0 40 -4 40 -3 0 -7 24 -7 53
0 64 -16 160 -37 219 -8 24 -11 44 -6 46 8 2 -8 37 -62 138 -6 11 -17 19 -24
16 -7 -2 -15 9 -18 27 -4 17 -9 29 -13 28 -3 -1 -16 8 -29 21 -23 23 -30 38
-12 27 5 -3 7 0 4 9 -7 18 -93 86 -110 86 -6 0 -14 7 -18 15 -3 8 -16 15 -30
15 -14 0 -31 7 -40 15 -8 8 -23 15 -33 15 -10 1 -29 7 -43 15 -14 8 -38 15
-55 15 -40 0 -53 10 -51 40 1 15 -4 24 -11 23 -7 -2 -15 8 -19 21 -7 29 -122
127 -166 142 -30 11 -260 10 -277 0 -3 -3 -43 4 -87 14 -44 11 -89 19 -100 18
-10 -1 -37 1 -59 4 -22 3 -81 2 -131 -2z m556 -55 c11 -13 10 -14 -4 -9 -9 3
-16 10 -16 15 0 13 6 11 20 -6z m-203 -91 c-7 -7 -24 19 -32 46 -5 20 -3 19
15 -9 11 -18 19 -35 17 -37z m371 43 c23 -16 3 -24 -39 -17 -23 4 -54 4 -70 0
-21 -6 -31 -4 -43 9 -9 10 -16 19 -16 22 0 7 155 -6 168 -14z m-198 -32 c20
-24 6 -28 -15 -5 -10 11 -13 20 -8 20 6 0 16 -7 23 -15z m204 -11 c9 -8 16
-21 16 -29 0 -7 3 -20 6 -29 10 -26 -16 -18 -62 19 -46 38 -79 48 -49 15 10
-11 16 -20 13 -20 -2 0 -15 12 -29 27 -13 14 -18 23 -11 19 6 -4 12 -2 12 3 0
17 86 13 104 -5z m-160 -71 c10 -27 22 -56 27 -66 6 -11 8 -21 6 -24 -7 -6
-21 20 -46 86 -12 28 -17 51 -12 51 4 0 16 -21 25 -47z m-1179 2 c-16 -14 -34
-25 -39 -25 -6 0 5 11 24 25 43 32 54 32 15 0z m435 -6 c6 -10 7 -19 3 -19 -4
0 -13 11 -20 25 -13 29 2 24 17 -6z m844 -5 c3 -8 2 -12 -4 -9 -6 3 -10 10
-10 16 0 14 7 11 14 -7z m169 -16 c-3 -18 -13 -46 -20 -63 -12 -26 -13 -27 -9
-5 2 14 8 42 11 63 4 20 11 37 16 37 5 0 6 -15 2 -32z m-103 -8 c0 -5 3 -15 6
-24 3 -9 1 -16 -5 -16 -6 0 -11 8 -11 18 0 10 -6 24 -12 31 -11 10 -10 11 5 6
9 -4 17 -11 17 -15z m-1143 -56 c-3 -3 -12 -4 -19 -1 -8 3 -5 6 6 6 11 1 17
-2 13 -5z m53 -14 c0 -5 -7 -7 -15 -4 -8 4 -15 8 -15 10 0 2 7 4 15 4 8 0 15
-4 15 -10z m1328 -10 c-7 -10 -14 -18 -15 -16 -6 6 9 36 18 36 5 0 4 -9 -3
-20z m-1350 -47 c-10 -2 -26 -2 -35 0 -10 3 -2 5 17 5 19 0 27 -2 18 -5z m867
-124 c4 -6 23 -9 42 -7 25 2 39 -3 49 -17 8 -10 14 -15 14 -11 0 5 6 4 13 -1
6 -5 25 -10 41 -11 16 -1 34 -6 40 -11 6 -5 27 -12 46 -16 19 -4 59 -18 88
-31 29 -13 61 -24 72 -24 11 0 20 -4 20 -10 0 -5 15 -16 33 -24 63 -26 178
-198 218 -326 24 -78 45 -223 54 -379 5 -97 4 -113 -8 -108 -8 3 -55 13 -103
23 -49 9 -96 22 -104 29 -24 20 -109 36 -207 38 -28 1 -48 6 -45 11 3 5 -2 6
-12 3 -21 -8 -68 2 -61 13 10 16 -28 20 -51 5 -17 -11 -24 -12 -27 -2 -3 7 -6
5 -6 -5 -1 -11 -7 -15 -23 -10 -13 3 -19 1 -15 -5 4 -7 -7 -12 -27 -15 -27 -3
-36 0 -39 14 -3 10 -10 18 -16 18 -6 0 -8 -7 -5 -15 4 -9 0 -15 -7 -15 -11 0
-11 -3 1 -10 13 -9 13 -10 0 -11 -8 -1 -21 -1 -28 0 -8 1 -22 -7 -32 -19 -11
-13 -21 -17 -25 -10 -3 6 -10 8 -15 5 -4 -3 -10 1 -13 9 -3 8 -18 13 -35 12
-21 -1 -29 2 -28 14 1 9 -9 16 -27 18 -16 2 -31 10 -34 18 -3 8 -13 14 -22 14
-13 0 -13 -2 -2 -9 7 -5 10 -14 7 -20 -5 -8 -14 -6 -31 6 -12 10 -21 22 -18
26 3 4 -16 5 -42 1 -34 -4 -45 -3 -40 5 8 13 -42 5 -61 -10 -6 -5 -13 -7 -15
-5 -2 3 -22 7 -44 10 -22 2 -49 8 -59 12 -14 5 -17 4 -12 -4 5 -8 -1 -12 -16
-13 -118 -5 -145 -7 -158 -12 -8 -3 -64 -8 -125 -12 -60 -3 -128 -10 -150 -15
-39 -8 -113 -14 -148 -11 -15 1 -16 4 -6 22 8 17 8 23 -2 30 -9 5 -10 11 -2
21 6 7 10 20 11 28 0 8 7 46 15 85 9 38 14 72 11 76 -2 4 3 20 11 35 8 16 15
41 15 55 0 15 7 43 15 63 8 19 14 39 13 43 -9 34 60 117 87 107 8 -4 15 -1 15
7 0 7 3 9 6 6 7 -7 32 24 52 63 7 14 32 34 54 43 23 10 56 30 74 43 19 15 38
23 45 18 9 -5 10 -2 5 12 -4 10 -4 15 0 11 4 -3 21 5 38 19 20 18 32 22 34 14
3 -9 6 -9 11 -1 4 6 23 13 42 16 19 3 43 7 54 10 48 12 143 21 180 18 22 -2
71 -5 108 -7 37 -2 73 -8 79 -14 20 -20 41 -14 35 9 -5 19 -4 20 18 5 14 -9
40 -15 60 -14 29 3 34 6 29 21 -5 16 -2 18 16 12 20 -6 22 -4 17 15 -5 19 -3
21 18 16 19 -5 23 -3 19 9 -7 17 11 21 21 4z m855 -182 c0 -16 -18 3 -23 25
-6 22 -5 22 8 4 8 -11 15 -24 15 -29z m-2040 -827 c0 -5 13 -16 29 -25 31 -16
42 -61 12 -50 -9 3 -12 3 -8 -1 4 -4 1 -14 -6 -22 -10 -13 -9 -15 7 -9 17 7
17 6 5 -10 -8 -10 -18 -21 -23 -24 -5 -4 -5 -15 -1 -25 5 -11 9 -21 9 -24 7
-27 30 -49 49 -47 17 1 22 -3 22 -20 0 -12 4 -26 9 -30 5 -4 6 11 3 35 -6 51
8 47 18 -5 11 -62 60 -156 101 -196 76 -76 167 -107 312 -108 83 -1 86 -1 54
-14 -18 -8 -40 -11 -49 -8 -10 4 -14 2 -10 -4 4 -6 1 -14 -5 -17 -7 -3 -3 -3
10 0 19 5 23 2 20 -13 -2 -11 3 -18 13 -17 11 1 16 -7 16 -26 0 -18 -5 -26
-12 -23 -7 2 -15 -7 -19 -21 -6 -25 -26 -37 -26 -16 0 24 -42 8 -60 -22 -11
-18 -20 -27 -20 -20 0 6 -5 12 -11 12 -6 0 -17 7 -25 15 -17 17 -84 21 -84 5
0 -5 10 -10 23 -10 48 0 67 -11 66 -39 0 -14 -3 -20 -6 -13 -2 6 -17 12 -32
12 -16 0 -38 9 -51 20 -13 11 -27 20 -31 20 -4 0 -14 3 -22 6 -12 4 -14 -2
-12 -33 2 -21 1 -30 -1 -20 -3 9 -10 15 -15 12 -5 -4 -9 3 -9 14 0 14 -6 21
-19 21 -11 0 -23 5 -26 10 -4 6 -10 8 -15 5 -5 -3 -11 -1 -15 5 -3 5 -18 10
-33 10 -25 1 -25 2 -9 14 21 16 22 26 3 26 -8 0 -18 -10 -22 -22 l-8 -23 -7
25 -7 25 -1 -28 c-1 -16 -5 -26 -9 -23 -5 3 -16 -4 -26 -16 -13 -14 -15 -23
-7 -31 6 -6 11 -26 11 -43 0 -18 5 -36 10 -39 8 -5 7 -11 -1 -21 -6 -8 -8 -21
-4 -31 5 -10 7 -26 6 -37 -2 -10 2 -15 7 -12 7 4 7 -5 2 -26 -11 -40 -10 -79
4 -96 7 -10 5 -16 -5 -22 -11 -7 -11 -12 -2 -21 9 -9 9 -15 -2 -25 -15 -16
-29 -19 -21 -5 3 5 -1 28 -10 52 -9 24 -17 49 -18 54 -1 6 -5 15 -9 22 -9 14
-42 177 -51 251 -5 37 -4 52 4 47 5 -3 10 1 10 9 0 19 -17 30 -23 14 -2 -7 -5
5 -5 27 0 43 -18 153 -32 198 -4 15 -5 27 -1 27 5 0 6 43 3 96 -3 56 0 125 7
165 7 37 14 79 16 91 1 13 6 32 10 43 15 39 55 72 55 45z m1899 -83 c35 -71
22 -197 -29 -298 -56 -108 -163 -173 -285 -172 -89 0 -215 33 -215 55 0 5 -3
7 -7 6 -18 -5 -54 26 -78 66 -31 53 -33 71 -5 56 14 -8 20 -8 20 0 0 6 14 3
33 -7 38 -20 96 -26 114 -11 7 6 13 6 13 1 0 -5 8 -9 18 -9 9 -1 32 -3 50 -7
19 -3 32 -1 32 5 0 6 7 8 15 4 8 -3 15 -1 15 4 0 4 14 11 31 15 17 4 33 13 35
20 3 8 26 22 50 32 24 10 44 23 44 29 0 13 48 39 80 43 5 0 7 8 4 16 -4 10 0
15 15 15 12 0 21 6 22 13 3 30 -4 74 -14 92 -6 11 -12 37 -13 57 -1 33 1 36
16 28 10 -5 27 -29 39 -53z m-772 -95 c29 -45 83 -168 83 -191 0 -6 14 -41 30
-78 17 -36 30 -75 30 -87 0 -11 7 -34 16 -51 39 -71 54 -105 54 -125 0 -11 5
-20 10 -20 6 0 10 -5 10 -11 0 -5 -6 -7 -12 -3 -10 6 -10 4 0 -8 9 -11 10 -18
2 -23 -18 -11 -11 -27 11 -22 27 7 56 -18 70 -61 9 -27 8 -36 -1 -42 -7 -4 -9
-13 -6 -19 5 -7 -2 -11 -19 -11 -16 0 -24 -4 -20 -10 4 -6 14 -8 24 -5 23 7
22 -29 -1 -44 -14 -9 -18 -8 -18 3 0 8 -7 16 -15 20 -9 3 -15 0 -15 -10 0 -11
-6 -14 -16 -10 -8 3 -12 2 -9 -4 3 -6 0 -10 -8 -10 -17 0 -31 70 -17 84 6 6 5
15 -2 24 -9 10 -9 15 1 22 11 6 11 12 -2 31 -15 21 -15 24 -1 40 9 10 14 23
12 29 -6 18 -79 40 -97 31 -8 -5 -25 -4 -40 2 -19 9 -25 9 -29 -1 -3 -10 -8
-8 -18 5 -10 13 -16 15 -22 6 -11 -17 -102 -1 -102 18 0 19 -117 -3 -172 -32
-23 -12 -31 -11 -23 1 3 6 1 10 -4 10 -6 0 -11 18 -11 40 0 22 4 40 10 40 5 0
13 12 16 26 4 15 12 23 20 20 7 -3 14 -1 16 4 2 6 15 3 30 -4 l27 -14 -4 46
c-4 52 -21 103 -37 113 -6 4 -8 15 -3 25 7 18 8 18 15 -1 8 -18 9 -18 9 -2 1
10 12 38 26 63 14 25 25 53 25 63 0 68 87 195 126 185 11 -3 34 -26 51 -52z
m-1413 -16 c-3 -15 -8 -25 -11 -23 -2 3 -1 17 3 31 3 15 8 25 11 23 2 -3 1
-17 -3 -31z m551 -166 c20 0 39 -27 24 -36 -8 -5 -9 -3 -4 6 6 9 4 11 -5 5 -9
-6 -11 -4 -5 5 6 9 4 11 -4 6 -9 -6 -8 -13 5 -27 13 -14 20 -16 31 -8 10 9 13
8 13 -5 0 -9 3 -15 8 -15 17 3 30 -2 52 -21 13 -11 30 -20 39 -20 13 0 14 2 2
9 -11 7 -5 11 23 16 44 9 59 0 25 -14 l-24 -10 26 0 c15 -1 29 6 33 14 3 8 10
15 17 15 6 0 9 -7 6 -15 -4 -8 -2 -17 4 -21 6 -3 13 4 16 15 4 16 9 19 19 11
9 -8 18 -8 34 0 11 6 25 8 30 5 6 -3 10 -1 10 4 0 6 3 10 8 9 4 0 14 2 23 6 8
4 26 2 40 -3 13 -5 18 -10 11 -10 -7 -1 -11 -5 -8 -10 3 -5 -1 -14 -9 -21 -9
-7 -15 -8 -15 -2 0 5 -6 12 -13 15 -8 3 -14 -1 -14 -9 0 -7 4 -11 9 -8 4 3 8
1 8 -4 0 -4 -27 -16 -61 -26 -124 -38 -288 1 -365 86 -21 23 -33 46 -30 54 3
9 1 12 -4 9 -6 -3 -15 6 -20 20 -15 39 -13 39 21 6 17 -17 36 -31 44 -31z
m-396 9 c-7 -4 -9 -18 -5 -35 5 -21 4 -25 -3 -14 -6 8 -10 29 -9 47 1 27 4 31
15 21 10 -8 11 -13 2 -19z m-149 -63 c0 -8 6 -17 13 -19 7 -3 5 -6 -5 -6 -10
-1 -18 5 -18 12 0 8 -3 8 -9 -2 -5 -8 -7 -21 -4 -30 4 -13 3 -13 -5 -2 -7 10
-7 22 1 38 11 26 27 31 27 9z m-48 -18 c-7 -7 -12 -8 -12 -2 0 14 12 26 19 19
2 -3 -1 -11 -7 -17z m78 -33 c0 -8 3 -14 8 -14 4 1 17 1 30 0 19 -1 21 -5 16
-26 -3 -14 -2 -25 3 -25 5 0 9 -8 10 -17 2 -28 9 -52 16 -59 4 -4 7 -14 7 -23
0 -14 -2 -14 -11 -1 -8 12 -10 12 -7 -5 2 -11 12 -21 23 -23 33 -6 38 -19 5
-14 -22 3 -35 13 -46 34 -12 23 -12 28 -2 23 7 -4 0 5 -17 20 -16 14 -24 23
-16 19 11 -5 12 2 6 37 -4 24 -8 44 -9 44 0 0 -10 5 -20 11 -25 14 -32 34 -12
34 9 0 16 -7 16 -15z m158 -89 c3 -3 -6 -10 -19 -14 -22 -9 -59 3 -59 19 0 6
70 2 78 -5z m-318 -11 c-7 -8 -17 -15 -23 -15 -6 0 -2 7 9 15 25 19 30 19 14
0z m145 -24 c-3 -6 -11 -8 -17 -5 -6 4 -5 9 3 15 16 10 23 4 14 -10z m850 -10
c3 -5 1 -12 -5 -16 -5 -3 -10 1 -10 9 0 18 6 21 15 7z m140 -151 c-3 -5 1 -10
10 -10 9 0 14 -4 11 -9 -4 -5 0 -12 6 -15 11 -5 11 -7 0 -12 -6 -3 -10 -10 -7
-15 4 -5 -9 -6 -27 -3 -21 4 -28 2 -20 -3 7 -5 10 -17 6 -26 -4 -10 -1 -17 6
-17 9 0 10 -3 1 -13 -8 -11 -5 -19 14 -37 13 -13 22 -27 18 -33 -3 -5 -10 -3
-15 7 -5 9 -17 16 -28 16 -10 0 -21 6 -23 13 -4 8 -8 8 -14 2 -11 -13 -56 -18
-48 -5 3 6 -1 10 -9 10 -9 0 -16 -9 -16 -20 0 -11 -5 -20 -11 -20 -6 0 -8 7
-5 16 4 9 1 23 -6 31 -10 13 -7 20 17 39 17 14 29 29 27 35 -1 6 2 8 7 4 12
-7 51 25 51 42 0 7 7 13 15 13 8 0 15 5 15 10 0 6 7 10 16 10 8 0 12 -4 9 -10z
m-635 -32 c0 -7 -4 -19 -9 -26 -7 -11 -10 -10 -15 3 -3 9 -4 21 0 26 8 13 24
11 24 -3z m40 -18 c0 -5 -4 -10 -10 -10 -5 0 -10 -7 -10 -17 0 -9 -3 -14 -6
-10 -8 8 5 47 17 47 5 0 9 -4 9 -10z m640 -70 c0 -5 -5 -10 -11 -10 -5 0 -7 5
-4 10 3 6 8 10 11 10 2 0 4 -4 4 -10z m-1118 -50 c-12 -11 -25 -20 -29 -20 -9
1 36 40 45 40 3 0 -4 -9 -16 -20z m538 -50 c-20 -12 -33 -1 -19 16 9 11 15 12
23 4 8 -8 7 -13 -4 -20z m89 -53 c12 3 20 -2 23 -15 4 -13 14 -19 31 -19 42 0
87 -39 87 -75 0 -26 3 -30 21 -25 16 4 19 3 11 -5 -7 -7 -25 -13 -41 -14 -16
-1 -34 -5 -40 -9 -6 -3 -11 0 -11 9 0 8 -3 22 -7 32 -5 13 -3 16 10 11 9 -3
21 1 29 11 9 11 10 14 1 8 -7 -4 -19 -4 -25 1 -7 4 -20 8 -28 8 -50 4 -52 5
-47 25 5 18 -8 38 -26 39 -4 0 -15 4 -24 10 -15 8 -15 11 -3 27 14 16 15 16
18 -3 2 -15 9 -19 21 -16z m-471 7 c12 -4 22 -10 22 -15 0 -10 -41 -12 -65 -3
-13 5 -14 8 -3 15 16 10 17 10 46 3z m1369 -36 c-3 -8 -6 -5 -6 6 -1 11 2 17
5 13 3 -3 4 -12 1 -19z m77 7 c4 -10 -1 -15 -16 -15 -17 0 -18 2 -8 15 7 8 14
15 15 15 2 0 5 -7 9 -15z m-224 -15 c0 -5 -2 -10 -4 -10 -3 0 -8 5 -11 10 -3
6 -1 10 4 10 6 0 11 -4 11 -10z m77 -13 c10 -11 -30 -8 -47 3 -11 7 -8 8 13 6
15 -1 30 -6 34 -9z m-1127 -4 c0 -10 -32 -43 -42 -43 -15 0 -8 29 10 39 20 12
32 14 32 4z m1603 -58 c-3 -9 -8 -14 -10 -11 -3 3 -2 9 2 15 9 16 15 13 8 -4z
m-1665 -21 c-7 -15 -14 -21 -16 -15 -2 6 -8 9 -13 5 -5 -3 -9 0 -9 5 0 6 7 11
15 11 8 0 15 5 15 10 0 6 4 10 10 10 6 0 5 -11 -2 -26z m192 6 c0 -5 -2 -10
-4 -10 -3 0 -8 5 -11 10 -3 6 -1 10 4 10 6 0 11 -4 11 -10z m1290 -26 c0 -8 6
-14 14 -14 23 0 28 -17 16 -59 -8 -29 -15 -39 -25 -35 -21 8 -19 -12 4 -35 11
-11 17 -22 14 -25 -3 -2 -2 -10 2 -16 5 -8 11 -8 21 1 8 6 14 8 15 3 0 -5 5 2
10 16 l10 24 12 -24 c11 -22 11 -26 -6 -32 -13 -6 -16 -14 -12 -27 3 -11 2
-22 -4 -25 -5 -3 -7 -15 -4 -26 3 -12 0 -20 -7 -20 -8 0 -9 -10 -5 -29 6 -27
3 -30 -26 -36 -22 -5 -28 -10 -18 -15 19 -12 -7 -40 -37 -40 -13 0 -24 -5 -24
-10 0 -6 -12 -9 -27 -8 -18 2 -27 -1 -26 -9 2 -7 -13 -24 -32 -39 -31 -23 -38
-25 -66 -15 -27 9 -30 9 -19 -4 17 -20 -4 -20 -24 1 -12 12 -16 12 -16 2 0
-10 -3 -9 -10 2 -8 13 -10 12 -10 -2 0 -20 -20 -25 -20 -5 0 9 -3 8 -9 -2 -5
-8 -14 -10 -22 -6 -9 6 -11 3 -6 -8 3 -10 2 -17 -3 -17 -6 0 -10 7 -10 16 0 8
-4 12 -10 9 -5 -3 -10 -2 -10 3 0 5 -9 12 -20 15 -13 3 -20 0 -20 -9 0 -8 -4
-14 -10 -14 -5 0 -10 5 -10 11 0 5 -4 7 -10 4 -5 -3 -10 1 -10 9 0 21 -37 40
-43 23 -3 -6 -6 -2 -6 11 -1 19 -5 21 -28 16 -16 -4 -33 -13 -40 -21 -12 -16
-29 -1 -18 17 3 6 -1 10 -11 10 -13 0 -14 3 -4 15 17 21 1 19 -23 -2 -18 -17
-19 -17 -16 11 3 19 -1 31 -10 34 -10 3 -12 0 -8 -12 8 -19 -1 -46 -15 -46 -6
0 -8 14 -6 30 3 17 1 30 -3 30 -4 0 -12 14 -18 31 -7 19 -15 28 -22 23 -9 -5
-10 -1 -7 14 4 15 2 22 -8 22 -8 0 -14 -5 -14 -11 0 -5 -4 -7 -10 -4 -17 10
-11 35 8 35 11 1 7 6 -13 17 -45 24 -13 27 41 4 25 -12 50 -18 55 -15 5 3 9 0
9 -5 0 -6 6 -11 14 -11 7 0 19 -7 26 -15 7 -8 23 -15 36 -15 27 0 44 -20 17
-21 -13 0 -14 -2 -4 -6 8 -3 20 2 27 12 12 16 16 16 30 4 13 -11 18 -11 21 -1
3 6 11 12 19 12 8 0 14 -6 14 -12 0 -10 2 -10 9 0 10 17 140 23 160 8 11 -8
13 -8 8 0 -4 7 18 15 63 23 42 8 68 17 64 23 -4 6 1 8 14 4 13 -4 25 -1 34 9
7 9 18 21 23 27 10 11 9 66 -1 98 -4 12 -7 12 -13 1 -11 -18 -31 -5 -31 20 0
21 56 89 74 89 6 0 17 9 24 20 13 22 32 19 32 -6z m-1315 6 c3 -5 1 -10 -4
-10 -6 0 -11 5 -11 10 0 6 2 10 4 10 3 0 8 -4 11 -10z m1205 -240 c-20 -13
-33 -13 -25 0 3 6 14 10 23 10 15 0 15 -2 2 -10z m-63 -16 c-3 -3 -12 -4 -19
-1 -8 3 -5 6 6 6 11 1 17 -2 13 -5z m-1041 -23 c-3 -5 4 -11 16 -14 18 -5 19
-8 8 -21 -17 -22 -27 -20 -33 6 -6 21 -1 38 9 38 3 0 3 -4 0 -9z m1189 -261
c3 -5 1 -10 -4 -10 -6 0 -11 5 -11 10 0 6 2 10 4 10 3 0 8 -4 11 -10z m-1006
-74 c8 -10 9 -16 1 -21 -13 -8 -30 3 -30 21 0 18 14 18 29 0z m54 -132 c-4
-10 -9 -12 -15 -6 -12 12 -1 35 12 27 5 -3 6 -13 3 -21z m130 -56 c33 -16 35
-24 5 -23 -30 2 -58 15 -58 26 0 13 21 11 53 -3z m590 -88 c3 -11 1 -18 -4
-14 -5 3 -9 12 -9 20 0 20 7 17 13 -6z m-348 -10 c3 -5 -1 -10 -9 -10 -9 0
-16 5 -16 10 0 6 4 10 9 10 6 0 13 -4 16 -10z m55 -4 c0 -3 -4 -8 -10 -11 -5
-3 -10 -1 -10 4 0 6 5 11 10 11 6 0 10 -2 10 -4z m1825 -36 c3 -5 1 -10 -4
-10 -6 0 -11 5 -11 10 0 6 2 10 4 10 3 0 8 -4 11 -10z"/>
<path d="M2200 4490 c0 -5 5 -10 10 -10 6 0 10 5 10 10 0 6 -4 10 -10 10 -5 0
-10 -4 -10 -10z"/>
<path d="M1665 3713 c2 -10 4 -22 4 -26 1 -5 6 -5 11 -2 15 9 12 45 -4 45 -8
0 -13 -8 -11 -17z"/>
<path d="M1656 3661 c-4 -7 -5 -15 -2 -18 9 -9 19 4 14 18 -4 11 -6 11 -12 0z"/>
<path d="M2016 3661 c-6 -9 35 -24 43 -15 6 5 -18 24 -31 24 -4 0 -9 -4 -12
-9z"/>
<path d="M1850 3550 c0 -5 6 -10 14 -10 8 0 18 5 21 10 3 6 -3 10 -14 10 -12
0 -21 -4 -21 -10z"/>
<path d="M1515 3370 c-3 -5 -1 -10 4 -10 6 0 11 5 11 10 0 6 -2 10 -4 10 -3 0
-8 -4 -11 -10z"/>
<path d="M2880 3480 c-8 -5 -12 -12 -9 -15 4 -3 12 1 19 10 14 17 11 19 -10 5z"/>
<path d="M2216 3532 c-3 -6 -1 -14 5 -17 15 -10 25 3 12 16 -7 7 -13 7 -17 1z"/>
<path d="M1890 3160 c0 -5 5 -10 10 -10 6 0 10 5 10 10 0 6 -4 10 -10 10 -5 0
-10 -4 -10 -10z"/>
<path d="M2836 3011 c-3 -5 1 -11 9 -15 8 -3 15 -1 15 4 0 13 -18 22 -24 11z"/>
<path d="M2830 2968 c0 -18 18 -34 28 -24 3 4 -2 14 -11 23 -16 16 -17 16 -17
1z"/>
<path d="M2730 2680 c0 -5 5 -10 10 -10 6 0 10 5 10 10 0 6 -4 10 -10 10 -5 0
-10 -4 -10 -10z"/>
<path d="M1858 5773 c6 -2 18 -2 25 0 6 3 1 5 -13 5 -14 0 -19 -2 -12 -5z"/>
<path d="M1808 5763 c7 -3 16 -2 19 1 4 3 -2 6 -13 5 -11 0 -14 -3 -6 -6z"/>
<path d="M1758 5753 c7 -3 16 -2 19 1 4 3 -2 6 -13 5 -11 0 -14 -3 -6 -6z"/>
<path d="M1650 5720 c-8 -5 -10 -10 -5 -10 6 0 17 5 25 10 8 5 11 10 5 10 -5
0 -17 -5 -25 -10z"/>
<path d="M1236 5243 c-6 -14 -5 -15 5 -6 7 7 10 15 7 18 -3 3 -9 -2 -12 -12z"/>
<path d="M3641 4994 c0 -11 3 -14 6 -6 3 7 2 16 -1 19 -3 4 -6 -2 -5 -13z"/>
<path d="M4655 3340 c-4 -6 -10 -8 -15 -5 -5 3 -7 -11 -5 -30 3 -23 1 -34 -5
-30 -5 3 -10 16 -11 28 -1 16 -3 14 -8 -8 -4 -17 -5 -64 -1 -105 5 -57 8 -64
9 -30 1 40 3 43 15 28 15 -20 33 -23 38 -7 2 7 26 13 53 14 28 1 56 3 63 3 7
1 12 16 12 37 0 19 4 35 9 35 5 0 4 13 -2 29 -6 16 -16 27 -23 24 -7 -2 -36 3
-65 11 -62 19 -56 18 -64 6z m122 -92 c-3 -8 -6 -5 -6 6 -1 11 2 17 5 13 3 -3
4 -12 1 -19z"/>
<path d="M3276 3331 c-3 -5 1 -11 9 -14 9 -4 12 -1 8 9 -6 16 -10 17 -17 5z"/>
<path d="M3235 3300 c-3 -6 1 -13 9 -16 19 -7 21 -25 4 -42 -6 -6 -13 -17 -14
-24 -1 -7 -6 -22 -10 -32 -6 -17 -1 -15 33 9 38 27 39 30 27 54 -7 15 -15 34
-18 44 -6 19 -21 23 -31 7z"/>
<path d="M3247 3166 c-4 -10 -1 -13 9 -9 15 6 19 23 5 23 -5 0 -11 -7 -14 -14z"/>
<path d="M4711 3171 c-8 -5 -9 -11 -3 -15 5 -3 12 1 16 9 6 17 6 18 -13 6z"/>
<path d="M4665 3160 c-19 -8 -19 -9 3 -9 12 -1 22 4 22 9 0 6 -1 10 -2 9 -2 0
-12 -4 -23 -9z"/>
<path d="M1615 2960 c3 -5 8 -10 11 -10 2 0 4 5 4 10 0 6 -5 10 -11 10 -5 0
-7 -4 -4 -10z"/>
<path d="M4741 2921 c-8 -5 -10 -14 -7 -20 8 -13 46 -15 46 -2 0 16 -25 30
-39 22z"/>
<path d="M4596 2838 c3 -4 9 -8 15 -8 5 0 9 4 9 8 0 5 -7 9 -15 9 -8 0 -12 -4
-9 -9z"/>
<path d="M1867 2346 c-7 -16 1 -26 20 -26 7 0 13 9 13 20 0 23 -25 27 -33 6z"/>
<path d="M5136 2132 c-5 -18 -5 -36 -2 -39 7 -7 19 43 13 59 -2 7 -7 -2 -11
-20z"/>
<path d="M4875 2016 c-6 -7 -26 -38 -47 -68 -20 -31 -45 -62 -56 -69 -10 -8
-31 -32 -46 -53 -34 -50 -96 -106 -118 -106 -9 0 -18 -5 -20 -12 -3 -7 -9 -8
-19 -3 -7 5 -34 11 -58 13 -30 2 -50 11 -66 28 l-23 25 2 -24 c0 -14 7 -24 16
-23 9 1 16 -9 18 -24 5 -32 20 -50 43 -50 13 0 17 5 12 16 -4 12 2 9 21 -7
l27 -24 -21 -17 c-13 -10 -20 -24 -16 -33 3 -8 1 -15 -5 -15 -6 0 3 -11 18
-24 15 -14 30 -20 31 -15 2 5 8 7 12 4 5 -3 23 16 41 42 18 27 61 76 96 111
46 46 65 75 73 105 9 38 29 82 83 185 18 35 20 63 2 38z"/>
<path d="M4796 1974 c-4 -10 -1 -14 6 -12 15 5 23 28 10 28 -5 0 -13 -7 -16
-16z"/>
<path d="M5386 1952 c-9 -11 -26 -39 -39 -65 -24 -49 -79 -120 -140 -179 -46
-46 -77 -48 -124 -12 l-34 26 -22 -20 c-16 -14 -28 -17 -42 -12 -11 5 -33 9
-50 9 -30 1 -89 19 -113 35 -7 4 -16 5 -20 1 -11 -11 69 -75 97 -77 66 -4 91
-3 91 4 0 4 9 8 21 8 13 0 18 -4 13 -12 -4 -6 -3 -9 2 -6 5 4 27 -5 49 -18 22
-13 48 -27 58 -30 9 -4 17 -12 17 -19 0 -21 36 -55 61 -57 22 -3 24 0 22 34
-2 35 0 38 35 48 20 5 63 10 95 10 55 0 57 1 47 20 -6 12 -24 23 -40 27 -31 6
-74 43 -50 43 10 0 9 5 -3 18 -22 24 -22 33 -1 25 14 -5 16 -2 10 21 -7 27 -6
28 24 21 19 -4 30 -3 30 4 0 6 -6 11 -12 11 -9 0 -8 4 2 10 12 8 10 10 -10 11
-18 1 -20 3 -7 6 11 3 16 11 13 19 -4 9 7 17 35 24 31 9 38 14 30 24 -6 7 -12
25 -13 40 -3 31 -9 32 -32 8z"/>
<path d="M4885 1630 c10 -11 20 -18 23 -16 5 6 -23 36 -34 36 -4 0 1 -9 11
-20z"/>
<path d="M5060 1579 c0 -5 5 -7 10 -4 6 3 10 8 10 11 0 2 -4 4 -10 4 -5 0 -10
-5 -10 -11z"/>
<path d="M4576 1498 c-8 -12 -13 -25 -10 -30 3 -4 -5 -22 -16 -39 -12 -16 -19
-33 -15 -37 4 -4 12 1 19 11 6 10 19 28 29 39 15 18 25 78 13 78 -3 0 -12 -10
-20 -22z"/>
<path d="M4880 1173 c0 -12 5 -25 10 -28 13 -8 13 15 0 35 -8 12 -10 11 -10
-7z"/>
<path d="M4795 709 c-8 -12 12 -39 29 -39 6 0 5 4 -3 9 -7 5 -9 10 -3 12 6 3
5 9 -3 16 -9 9 -16 9 -20 2z"/>
<path d="M5080 650 c0 -5 9 -10 21 -10 11 0 17 5 14 10 -3 6 -13 10 -21 10 -8
0 -14 -4 -14 -10z"/>
<path d="M5205 650 c-3 -5 3 -10 14 -10 12 0 21 5 21 10 0 6 -6 10 -14 10 -8
0 -18 -4 -21 -10z"/>
</g>
</svg>
