<?xml version="1.0" standalone="no"?>
<!DOCTYPE svg PUBLIC "-//W3C//DTD SVG 20010904//EN"
 "http://www.w3.org/TR/2001/REC-SVG-20010904/DTD/svg10.dtd">
<svg version="1.0" xmlns="http://www.w3.org/2000/svg"
 width="150.000000pt" height="150.000000pt" viewBox="0 0 150.000000 150.000000"
 preserveAspectRatio="xMidYMid meet">
<metadata>
Created by potrace 1.11, written by Peter Selinger 2001-2013
</metadata>
<g transform="translate(0.000000,150.000000) scale(0.100000,-0.100000)"
fill="#000000" stroke="none">
<path d="M441 1390 c-81 -29 -121 -68 -145 -140 -16 -47 -29 -283 -16 -275 5
3 11 -2 14 -11 3 -8 2 -13 -2 -11 -4 3 -15 -6 -25 -19 -12 -16 -14 -24 -6 -24
7 0 0 -14 -17 -31 l-29 -32 39 6 c36 6 37 5 22 -12 -23 -26 -20 -34 14 -29 25
4 29 1 32 -21 2 -21 8 -25 33 -26 23 0 31 -5 33 -22 2 -13 8 -23 13 -23 6 0 7
-4 4 -10 -3 -5 8 -30 25 -55 17 -25 29 -49 25 -54 -8 -14 6 -20 61 -26 56 -7
94 -24 54 -25 -84 0 -257 82 -220 105 5 3 10 10 10 15 0 14 -44 -1 -80 -29
-55 -42 -182 -118 -233 -140 l-47 -20 0 -241 0 -240 720 0 720 0 -24 49 c-14
27 -43 70 -65 95 -22 26 -43 62 -47 81 -8 42 -24 56 -24 21 0 -15 -12 -34 -31
-50 -38 -32 -72 -36 -128 -14 l-26 10 23 11 c12 5 22 14 22 19 0 5 -4 7 -9 4
-12 -8 -42 4 -36 14 2 4 -9 18 -25 30 -17 13 -30 27 -30 33 0 5 -14 25 -31 44
-23 27 -29 41 -24 62 16 73 13 180 -6 238 -17 49 -19 52 -14 18 3 -22 9 -48
12 -58 4 -15 1 -18 -14 -14 -10 3 -39 9 -65 13 -30 4 -70 21 -109 46 -33 22
-63 37 -65 35 -3 -3 0 -23 5 -45 6 -22 9 -46 6 -55 -8 -19 -49 -37 -86 -37
-27 0 -29 2 -15 15 8 8 18 24 21 35 3 11 11 20 16 20 6 0 8 4 5 9 -3 5 17 37
44 71 49 62 59 76 41 66 -5 -3 -11 4 -15 17 -4 15 0 26 14 36 12 8 20 25 20
42 0 23 -4 29 -22 29 -13 0 -30 5 -38 10 -12 7 -8 10 14 10 20 0 39 11 61 35
28 29 32 31 28 12 -4 -19 -2 -19 21 8 28 33 42 78 30 97 -4 7 -11 52 -14 99
-5 74 -11 94 -34 128 -18 26 -41 44 -64 52 -19 6 -45 23 -57 36 -19 23 -30 26
-115 29 -76 3 -106 0 -149 -16z m254 -11 c11 -17 2 -18 -19 -3 -17 12 -17 14
-4 14 9 0 20 -5 23 -11z m34 -117 c46 -22 71 -67 78 -138 l6 -57 -34 7 c-72
16 -109 18 -136 9 -20 -7 -37 -6 -58 3 -28 11 -177 11 -212 -1 -16 -5 -17 22
-2 80 9 34 21 50 57 76 40 29 57 34 127 40 95 8 128 4 174 -19z m-358 -219
c10 -11 10 -14 2 -9 -18 10 -16 -9 2 -24 8 -7 15 -18 15 -24 0 -22 44 -55 85
-65 22 -5 34 -9 27 -10 -7 -1 -11 -5 -7 -10 9 -15 -63 -25 -90 -13 -30 14 -35
7 -30 -49 6 -64 -10 -20 -25 68 -10 60 -7 153 5 153 1 0 9 -8 16 -17z m439
-32 c0 -16 -9 -40 -21 -55 -25 -32 -75 -35 -110 -7 l-24 19 35 -2 c20 -2 51 6
73 18 30 16 38 25 34 43 -2 12 0 20 4 17 5 -3 9 -18 9 -33z m-155 -63 c15 -40
32 -77 36 -82 14 -16 10 -36 -6 -36 -9 0 -15 9 -15 25 0 20 -6 25 -35 31 -19
3 -46 4 -60 2 -28 -6 -36 18 -9 29 8 3 13 12 10 19 -5 13 15 72 30 86 12 13
20 1 49 -74z m-164 5 c22 3 37 1 33 -4 -15 -24 -114 3 -114 32 0 5 10 -1 21
-12 17 -17 29 -20 60 -16z m43 -87 c-6 -16 -34 -30 -34 -18 0 10 22 32 32 32
4 0 5 -6 2 -14z m-74 -76 c0 -6 -9 -2 -20 7 -11 10 -20 19 -20 21 0 1 9 -2 20
-8 11 -6 20 -15 20 -20z m228 -21 c-2 -3 3 -13 10 -22 19 -22 6 -54 -28 -72
-33 -17 -76 -20 -85 -5 -4 6 -12 10 -18 9 -25 -3 -34 2 -45 25 -11 24 -10 24
19 14 57 -20 167 9 127 33 -13 8 -1 32 14 27 5 -2 8 -6 6 -9z"/>
<path d="M794 815 c-4 -8 -9 -13 -13 -10 -4 2 -8 -2 -8 -10 0 -8 4 -12 9 -9
10 7 30 44 23 44 -3 0 -8 -7 -11 -15z"/>
<path d="M1100 805 c0 -23 2 -24 25 -13 19 9 22 14 14 25 -18 21 -39 15 -39
-12z"/>
<path d="M951 744 c0 -11 3 -14 6 -6 3 7 2 16 -1 19 -3 4 -6 -2 -5 -13z"/>
<path d="M1127 485 c-15 -19 -37 -35 -48 -35 -14 0 -18 -4 -12 -12 4 -7 9 -22
10 -32 5 -27 13 -34 13 -11 0 11 10 30 23 44 19 22 52 81 44 81 -1 0 -15 -16
-30 -35z"/>
<path d="M1251 469 c-16 -20 -30 -29 -42 -26 -11 3 -19 2 -19 -1 1 -11 50 -44
50 -34 0 5 10 14 23 20 12 6 16 11 10 11 -18 1 -16 21 4 43 9 10 12 18 7 17
-5 0 -20 -14 -33 -30z"/>
<path d="M1150 440 c19 -13 30 -13 30 0 0 6 -10 10 -22 10 -19 0 -20 -2 -8
-10z"/>
</g>
</svg>
